<?xml version="1.0" encoding="UTF-8"?> <svg xmlns="http://www.w3.org/2000/svg" width="574.33301" height="333.272" viewBox="0 0 574.33301 333.272"><defs><style>.cls-1{fill:#e6f4f8;}.cls-2{fill:#b3c3e5;}.cls-3{fill:#c9e7f2;}.cls-4{fill:#6e72a1;}.cls-5{fill:#1a1c3b;}.cls-6{fill:#d7dff3;}.cls-17,.cls-7{fill:#fff;}.cls-15,.cls-8{fill:#f29586;}.cls-9{fill:#71816d;}.cls-10{fill:#a6402b;}.cls-11,.cls-19{fill:none;}.cls-12{fill:#fddc96;}.cls-13,.cls-16{fill:#1a1e3a;}.cls-14{fill:#8f754f;}.cls-15,.cls-16,.cls-17{opacity:0.25;}.cls-18{fill:#ec6851;}.cls-19{stroke:#fff;stroke-linecap:round;stroke-miterlimit:10;}</style></defs><g id="Laag_3" data-name="Laag 3"><path class="cls-1" d="M533.25036,202.96527c-7.228-22.96753-11.15039-21.29321-16.58984-43.13354-9.11035-36.57984-.57861-51.19776-9.00635-75.20606C502.81823,70.8493,491.77771,52.21405,463.40906,34.601,443.33923,23.02094,421.849,14.25092,397.25915,13.77094c-52.48-1.02979-106.81006-.04981-153.66015,31.45019-38.29,25.75-81.7002-8.7102-128.49,4.35986-62.90992,17.58008-77.42994,58.12012-74.98,123.37989a74.35467,74.35467,0,0,0,4.00537,21.30981,124.32559,124.32559,0,0,1,3.69189,65.30322c-1.86938,8.95093-3.13013,16.81812-2.98047,22.73755.66358,26.25879,27.87085,50.71826,73.0232,50.31958H468.52917c.73291-.07324,1.44385-.15552,2.14746-.241,44.28223-5.37769,62.353-23.885,62.353-23.885C558.33972,282.6889,540.83777,227.07465,533.25036,202.96527Z"></path><path class="cls-2" d="M482.03181,224.24912v97.51751a11.87262,11.87262,0,0,1-11.8696,11.87522H349.55734a11.86523,11.86523,0,0,1-11.86987-11.87522V224.24912a11.87275,11.87275,0,0,1,11.86987-11.87521H470.16221a11.87961,11.87961,0,0,1,11.8696,11.87521Z"></path><rect class="cls-3" x="373.53121" y="212.3758" width="108.50319" height="121.26606" rx="20.0347"></rect><rect class="cls-2" x="373.5313" y="248.77316" width="108.50315" height="1.71814"></rect><rect class="cls-2" x="373.5313" y="288.84361" width="108.50315" height="1.71814"></rect><path class="cls-4" d="M338.16033,87.84934H493.27972a7.3159,7.3159,0,0,1,7.3159,7.3159V168.2606a7.316,7.316,0,0,1-7.316,7.316H338.16033a7.3161,7.3161,0,0,1-7.3161-7.3161V95.16544A7.3161,7.3161,0,0,1,338.16033,87.84934Z"></path><circle class="cls-2" cx="375.69962" cy="133.27296" r="31.39326" transform="translate(108.79754 429.37288) rotate(-67.50002)"></circle><path class="cls-5" d="M378.3344,133.273a2.63479,2.63479,0,1,1-2.63478-2.63494A2.63475,2.63475,0,0,1,378.3344,133.273Z"></path><circle class="cls-6" cx="453.51094" cy="131.71295" r="31.39329" transform="translate(-18.12956 107.71902) rotate(-13.28254)"></circle><path class="cls-5" d="M456.14582,131.713a2.63483,2.63483,0,1,1-2.63486-2.63486A2.63487,2.63487,0,0,1,456.14582,131.713Z"></path><path class="cls-6" d="M418.4554,207.69815h18.65477a2.31734,2.31734,0,0,1,2.31734,2.31734v.043a2.31728,2.31728,0,0,1-2.31728,2.31728H418.45534a2.31728,2.31728,0,0,1-2.31728-2.31728v-.043a2.31734,2.31734,0,0,1,2.31734-2.31734Z"></path><path class="cls-6" d="M368.44567,208.605c1.3981-.04494,2.2445-1.62681,2.33685-3.02259s-.25916-2.829.10043-4.18077a4.17111,4.17111,0,0,1,2.95412-2.91238c1.48009-.3713,3.13094.09028,4.51627-.54956a6.41332,6.41332,0,0,0,2.50281-2.8012,12.742,12.742,0,0,1,4.30357-4.88518c1.91274-1.07893,4.64358-1.01968,6.01005.69947a10.04638,10.04638,0,0,1,1.32023,3.19971,3.86,3.86,0,0,0,2.09913,2.62093,10.45113,10.45113,0,0,0,1.84907.24125,4.073,4.073,0,0,1,3.3551,3.88541c.00362,1.27724-.38208,2.99968.80386,3.47368.50129.20041,1.18009.07631,1.49411.5154a1.28082,1.28082,0,0,1,.16192.73994c.01579,1.162.14149,2.32148.15733,3.4835Z"></path><path class="cls-7" d="M365.49367,205.69794c.08611,3.70294,1.408,6.67777,3.02654,6.67777h33.89031c1.6183,0,2.94017-2.97483,3.02633-6.67777Z"></path><path class="cls-2" d="M175.849,65.922H95.01892a6.51695,6.51695,0,0,0-6.51,6.51v44.86011a6.5169,6.5169,0,0,0,6.51,6.50976H175.849a6.51669,6.51669,0,0,0,6.50976-6.50976V72.432A6.51674,6.51674,0,0,0,175.849,65.922Zm3.37988,51.37012A3.38006,3.38006,0,0,1,175.849,120.662H95.01892a3.38006,3.38006,0,0,1-3.37988-3.36987V72.432a3.37991,3.37991,0,0,1,3.37988-3.36988H175.849a3.37991,3.37991,0,0,1,3.37988,3.36988Z"></path><rect class="cls-2" x="453.13417" y="289.70268" width="1.71814" height="43.81886"></rect><rect class="cls-2" x="426.92355" y="212.37563" width="1.71814" height="37.2566"></rect></g><g id="Laag_4" data-name="Laag 4"><path class="cls-7" d="M435.239,251.26185c-.13376-1.89057-2.556-3.703-6.95353-6.99342l-1.403-.89063-3.5835,5.17912c4.29517,2.60529,8.61382,5.25534,10.02086,5.08056a2.13355,2.13355,0,0,0,1.52183-.95875,2.25042,2.25042,0,0,0,.4002-1.15316A2.17465,2.17465,0,0,0,435.239,251.26185Z"></path><path class="cls-7" d="M375.3425,243.46754a2.44626,2.44626,0,0,0-.3345,1.95247,2.00028,2.00028,0,0,0,.63449,1.05493,1.93177,1.93177,0,0,0,.21365.156c1.6127,1.01539,4.67641-.56823,10.502-2.56648l.38474-.12758-2.14586-5.06212C380.237,240.89,376.09491,242.28942,375.3425,243.46754Z"></path><path class="cls-7" d="M426.5724,242.04132l-10.19314-7.12622c-2.05284-1.6054-1.89532,1.77492-2.275,4.57972a5.05351,5.05351,0,0,0,1.99564,4.79873c1.61316,1.06263,3.5701,2.89181,5.85984,4.42106a1.03257,1.03257,0,0,0,1.42679-.26366l3.44222-4.98534A1.02631,1.02631,0,0,0,426.5724,242.04132Z"></path><path class="cls-7" d="M395.31446,233.51446c-2.64744,1.07406-6.62633,2.72784-10.34789,4.42814a.72566.72566,0,0,0-.3641.945l2.1,4.9541a.699.699,0,0,0,.84191.39736l14.936-4.42106c2.77492-.89119.10156-3.19418-1.87213-5.22342A4.94973,4.94973,0,0,0,395.31446,233.51446Z"></path><path class="cls-7" d="M365.34156,227.76354c9.04627,10.77094,14.7169,15.15126,12.94181,18.69454a1.11646,1.11646,0,0,1-1.04181.60467,3.71727,3.71727,0,0,1-2.27062-1.26043,76.49432,76.49432,0,0,1-11.38936-14.821c-.48331-.76225-.95915-1.50956-1.43527-2.24629Z"></path><path class="cls-7" d="M426.40917,310.94353c-1.33953-2.27463-3.02246-5.20843-4.7821-8.42694,0,0,10.55379-4.78447,10.58621-4.69072,0,0,1.08272,6.05159,2.57553,8.87562,1.39453,2.63782,1.41637,4.89634-1.22745,6.27955A5.39667,5.39667,0,0,1,426.40917,310.94353Z"></path><path class="cls-7" d="M411.39279,284.214c1.28307-6.47385,5.70577-7.82419,12.21176-8.61745,2.57524,5.66815,7.32447,13.89151,9.72545,21.36a1.4614,1.4614,0,0,1-.76332,1.75874c-3.89453,1.8788-7.12384,3.43685-10.34806,4.99241a1.34174,1.34174,0,0,1-1.76293-.56507A158.16716,158.16716,0,0,1,411.39279,284.214Z"></path><path class="cls-7" d="M452.15349,325.60442c.69034.56484,1.50056,1.22768,2.80247,2.39832,1.40874,1.26683,2.37552,2.23,3.62238,3.27209l-3.24448,2.77995c-.63414-.501-3.03332-2.26869-6.78221-5.11711Z"></path><path class="cls-7" d="M426.48459,307.09546c1.83422-3.67449,6.31684,1.54107,7.727-.36975,1.32556,1.36562,2.70136,2.86595,4.09816,4.41664,1.01165,1.12306,5.05278,5.58107,5.9808,6.59318,5.26072,5.73751,6.2193,6.52369,7.86295,7.86889l-3.60184,3.33325c-2.34-1.778-19.46635-15.29838-20.80911-16.42291A4.51455,4.51455,0,0,1,426.48459,307.09546Z"></path><path class="cls-7" d="M404.32151,280.8603c.08544,2.36143,2.78171,4.27577,6.02234,4.27577,3.24046,0,5.79817-1.91434,5.71268-4.27577-.0855-2.3616-2.78171-4.27593-6.02217-4.27593C406.79373,276.58437,404.23608,278.4987,404.32151,280.8603Z"></path><path class="cls-7" d="M380.05122,295.13079c1.6393-2.06908,3.76982-4.69593,6.13816-7.49688,0,0,8.26546,8.12124,8.18969,8.18517,0,0-5.25511,3.19028-7.35163,5.60031-1.95829,2.25121-4.05731,3.08532-6.30014,1.11735A5.39675,5.39675,0,0,1,380.05122,295.13079Z"></path><path class="cls-7" d="M399.57557,271.49283c6.50146-1.13556,9.35446,2.50367,12.43842,8.287-4.35968,4.44437-10.31983,11.83736-16.42167,16.76776a1.46123,1.46123,0,0,1-1.91563-.07842c-3.15576-2.956-5.77265-5.40714-8.38524-7.85446a1.34164,1.34164,0,0,1-.10818-1.84808A158.199,158.199,0,0,1,399.57557,271.49283Z"></path><path class="cls-7" d="M389.56506,325.21283c.1732.875.37671,1.90194.63653,3.63335.281,1.87348.41417,3.2318.71331,4.829l-4.27175.081c-.17059-.79-.89725-3.68008-1.9777-8.26274Z"></path><path class="cls-7" d="M381.53458,294.60261c3.75274-1.66827,3.8934,5.20747,6.19706,4.63035.60054,7.40227.62736,19.88839,1.83342,25.97987l-4.89961.28052c-.69136-2.93255-1.52637-6.55238-2.45728-10.77773-.921-4.17975-2.75506-11.13509-3.53671-15.33295A4.53065,4.53065,0,0,1,381.53458,294.60261Z"></path><path class="cls-7" d="M391.08639,240.13875c-.3801-3.77225,1.50413-5.95489,4.96723-7.18076a47.03673,47.03673,0,0,1-1.69865,25.33582C393.19983,251.73418,392.23186,251.505,391.08639,240.13875Z"></path><path class="cls-7" d="M393.7529,255.20866c2.89793-7.71533,3.99077-13.40769,2.30072-22.25067a19.955,19.955,0,0,1,3.33461-.83461c1.7253-.29077,8.34688.22462,13.13464,1.04521,1.62583,8.86888,4.02279,11.32684,9.22811,19.24857.90336,5.36675,1.12278,16.672,2.57185,23.98955.355,1.793.45734,3.94613-1.38446,3.90392-24.53882-.562-23.94116-2.8027-25.00787-3.60733C395.06941,274.54624,395.78091,266.72476,393.7529,255.20866Z"></path><path class="cls-7" d="M412.52287,233.16859c.08685.01493.17766.02913.26332.0443a9.10743,9.10743,0,0,1,7.2873,7.28424c.22977,1.71172.01918,2.27521,1.67749,12.12649C416.54566,244.70183,414.1487,242.03747,412.52287,233.16859Z"></path><path class="cls-7" d="M386.02337,331.07849l-5.379,1.90093c-1.31651.465-1.54159,1.446-.99361,2.18173l12.57721-.19135-.58294-2.93448a1.10879,1.10879,0,0,0-1.04923-.91377Z"></path><path class="cls-7" d="M453.38083,331.02955l-5.379,1.90093c-1.3165.465-1.54158,1.44613-.99365,2.18167l12.57726-.19141-.58295-2.93436a1.10877,1.10877,0,0,0-1.04922-.91377Z"></path><path class="cls-7" d="M423.833,262.84308a6.514,6.514,0,0,0-.021,1.84876c.20335.88983.9394,1.59047,1.12091,2.485.20776,1.024-.353,2.07615-.20233,3.1101a6.32755,6.32755,0,0,0,1.27158,2.38972,2.59709,2.59709,0,0,1,.43884,2.561,6.141,6.141,0,0,0-.57168.91162c-.33411,1.00492.94466,1.812,1.17556,2.8457.24471,1.09539-.75993,2.08447-1.78946,2.53162a6.26865,6.26865,0,0,1-3.67409.39929c-1.87281-.36653-3.62719-1.59268-5.51668-1.32522-.83513.11819-1.60518.52478-2.435.67585a8.16327,8.16327,0,0,1-3.25369-.29411c-2.49163-.57016-4.9867-1.14128-7.42208-1.91739a8.514,8.514,0,0,1-4.12408-2.33557,16.54889,16.54889,0,0,0,7.66068-.73311,16.29282,16.29282,0,0,0,4.2679-1.76468,7.1382,7.1382,0,0,0,2.96316-3.4549,37.17737,37.17737,0,0,0,.77056-3.98822,3.64484,3.64484,0,0,1,2.49576-2.92582,9.212,9.212,0,0,1,2.35809.17529,1.89811,1.89811,0,0,0,2.00124-.93776,2.31394,2.31394,0,0,0,.04017-1.07836q-.14029-1.15748-.28052-2.31481c-.05879-.48507-.34865-5.42553-.02682-5.793C422.578,252.20306,423.8737,262.17951,423.833,262.84308Z"></path><path class="cls-7" d="M416.75286,212.95107a7.59046,7.59046,0,0,1-.18253-2.15327,12.97975,12.97975,0,0,1,.737-1.87009,3.52119,3.52119,0,0,0-1.31469-3.93424,12.04485,12.04485,0,0,1-1.19362-.76021c-.93272-.80938-1.012-2.20725-1.55262-3.31781a4.27555,4.27555,0,0,0-4.73134-2.20651,3.36574,3.36574,0,0,1-1.27985.2163,2.83052,2.83052,0,0,1-1.07383-.53106,5.49977,5.49977,0,0,0-2.74437-.95134,3.48708,3.48708,0,0,0-2.66566,1.01154,17.06187,17.06187,0,0,1-1.44749,1.84757c-.84315.67885-2.14716.69616-2.81735,1.54622-.57639.73119-.468,1.83077-1.02931,2.57338-.34446.45593-.90494.72333-1.207,1.20844-.46447.74607-.17059,1.70856-.20624,2.58674-.02116.52251-.16516,1.03649-.15944,1.55929a5.47316,5.47316,0,0,0,.28471,1.4583q.40762,1.39875.81532,2.79732c.11542.396.34129.87688.75342.85962a.78937.78937,0,0,0,.37886-.14377,5.07349,5.07349,0,0,0,1.67828-2.37631q.82461-1.8489,1.64943-3.69768a2.96843,2.96843,0,0,1,.80587-1.21438,2.44424,2.44424,0,0,1,2.33388-.07565c2.09324.81255,3.5822,2.64246,5.1794,4.22066a4.12755,4.12755,0,0,0,1.77181,1.18937c.51414.13273,1.06065.07717,1.57949.19113a2.50587,2.50587,0,0,1,1.77571,1.5392,7.576,7.576,0,0,0,.6393,1.99915,1.62842,1.62842,0,0,0,2.46735-.054A5.2148,5.2148,0,0,0,416.75286,212.95107Z"></path><path class="cls-7" d="M414.37983,218.47686a3.37218,3.37218,0,0,0-1.23916,1.113,9.81042,9.81042,0,0,0-.29315,1.06365,1.78349,1.78349,0,0,1-1.62645,1.1621c-.79263.00583-1.61027-.52-2.3319-.1922-.73424.33331-1.09482,1.457-1.89651,1.37065-.32952-.03536-.61463-.2907-.9459-.28324-.48048.01087-.85906.568-1.33037.47454-.51-.101-.56343-.83071-.35691-1.30757.50028-1.15531,1.71245-1.863,2.28844-2.98256.588-1.14275.49446-2.66583,1.45915-3.51471,1.16957-1.02913,3.1436-.39566,4.419-1.29031.769-.53955,1.15944-1.56144,2.02557-1.92508a1.69555,1.69555,0,0,1,2.23061,1.97125A6.23069,6.23069,0,0,1,414.37983,218.47686Z"></path><path class="cls-7" d="M408.01122,208.26748a5.39978,5.39978,0,0,1,1.4338.5589c2.6514,1.567,1.89668,4.17918.85181,7.64206l-.3693,1.14376.05879,3.66312c-1.65825,5.49009-6.5723,8.40832-11.13334,6.95274-4.561-1.455-7.11048-6.75494-5.45274-12.24474l2.00469-6.5431a4.75361,4.75361,0,0,1,4.57926-3.20159Z"></path><path class="cls-7" d="M394.86838,211.67219l1.81662.51624a.50238.50238,0,0,1-.27464.9665l-1.81651-.51612a.50242.50242,0,0,1,.27453-.96662Z"></path><path class="cls-7" d="M402.963,213.89772l1.81662.51618a.50239.50239,0,0,1-.27469.9665l-1.81645-.51624a.50234.50234,0,0,1,.27452-.96644Z"></path><path class="cls-7" d="M394.75929,213.8997c-.1346.47414.00561.92933.31317,1.01663.30763.08753.66618-.22593.801-.7s-.00531-.92922-.313-1.01663C395.25267,213.1121,394.894,213.42561,394.75929,213.8997Z"></path><path class="cls-7" d="M402.3648,216.346c-.13466.474.00555.92921.31312,1.01657.30779.08753.66634-.226.80111-.7.13484-.47409-.00554-.92922-.31305-1.0168C402.85829,215.5584,402.49946,215.87174,402.3648,216.346Z"></path><path class="cls-7" d="M396.97141,217.394l.11508-.1419a.99694.99694,0,0,0,.45581.99949l.86964.53236a.757.757,0,0,0,.88016-.07282l-.00645.09726a.78223.78223,0,0,1-1.18824.61627l-.86958-.53236A1.0106,1.0106,0,0,1,396.97141,217.394Z"></path><path class="cls-7" d="M399.546,222.05743a1.62717,1.62717,0,0,1-3.04146-.93324Z"></path><path class="cls-7" d="M411.27839,217.3744c-1.41151-.45174-3.00554.66917-3.56054,2.5026-.55516,1.83331.13953,3.68557,1.55109,4.13686,1.41168.45134,3.00583-.66895,3.56082-2.50215C413.38464,219.67772,412.69006,217.82585,411.27839,217.3744Z"></path><path class="cls-7" d="M405.51292,238.31919a3.43786,3.43786,0,0,1-3.68122-3.65485l-.23752-12.15987c-.01731-.89091.51165-1.624,1.17562-1.62521h4.82855c.664-.001,1.22163.72473,1.23894,1.61587l.235,12.01531A3.44605,3.44605,0,0,1,405.51292,238.31919Z"></path><path class="cls-7" d="M410.6818,216.55466s.17755-7.84348-9.75453-8.05933c0,0-4.65921-.02733-3.91931-1.94913l4.13177-2.16165,11.0634,3.93594,2.199,3.52823Z"></path><path class="cls-7" d="M408.589,252.66827a2.23424,2.23424,0,0,0,.36913-1.8272l.30864-.194,1.70148-.29682c14.76952-.25274,22.03651-2.11186,23.7308,1.57864a1.11589,1.11589,0,0,1-.18009,1.1909,3.71674,3.71674,0,0,1-2.40381.98291,76.4997,76.4997,0,0,1-18.68759-.388c-.97295-.10835-5.16424-.55007-5.16424-.55007Z"></path><path class="cls-7" d="M411.66387,255.14693a1.42466,1.42466,0,0,0-.06784-2.00769l-6.43317-6.01278a1.42046,1.42046,0,0,0-1.93991,2.07548l6.43329,6.01277A1.42457,1.42457,0,0,0,411.66387,255.14693Z"></path><path class="cls-7" d="M406.48231,247.93726a.52152.52152,0,0,0,.20375.72371l2.44511,1.60354a.57856.57856,0,0,0,.78075-.07779.52123.52123,0,0,0-.20375-.72355l-2.445-1.60371A.5789.5789,0,0,0,406.48231,247.93726Z"></path><path class="cls-7" d="M408.00256,253.9962a2.83183,2.83183,0,0,1-1.22088-.52382,1.42391,1.42391,0,0,1-.38752-.69293,5.73113,5.73113,0,0,1-.23769-1.90336,1.5629,1.5629,0,0,1,1.03213-1.54181,3.57014,3.57014,0,0,1,2.42944.12742,5.02758,5.02758,0,0,1,2.68179,1.7219c.95185,1.19232.81911,2.27436-1.23237,2.589A7.99942,7.99942,0,0,1,408.00256,253.9962Z"></path><path class="cls-7" d="M407.48361,250.19526l-3.98172.66714a.57265.57265,0,0,1-.62945-.37892.42158.42158,0,0,1,.35181-.54334l3.98161-.667a.57222.57222,0,0,1,.6294.37881A.42134.42134,0,0,1,407.48361,250.19526Z"></path><path class="cls-7" d="M407.463,251.51041l-3.98154.66719a.57233.57233,0,0,1-.62946-.379.42112.42112,0,0,1,.35171-.54311l3.9816-.66725a.57218.57218,0,0,1,.62934.37892A.42139.42139,0,0,1,407.463,251.51041Z"></path><path class="cls-7" d="M408.36694,252.71081l-3.98183.66714a.57249.57249,0,0,1-.62934-.37892.42132.42132,0,0,1,.3517-.54322l3.9816-.66725a.5727.5727,0,0,1,.62952.37891A.42159.42159,0,0,1,408.36694,252.71081Z"></path><path class="cls-7" d="M409.75446,253.71342l-3.98166.66725a.57207.57207,0,0,1-.62935-.379.42127.42127,0,0,1,.35159-.54328l3.98172-.667a.5722.5722,0,0,1,.6294.3787A.42124.42124,0,0,1,409.75446,253.71342Z"></path><path class="cls-7" d="M364.10823,223.13726a.52157.52157,0,0,0-.38616.64518l.51335,2.87858a.57839.57839,0,0,0,.59256.51414.52127.52127,0,0,0,.38616-.645l-.51318-2.87868A.579.579,0,0,0,364.10823,223.13726Z"></path><path class="cls-7" d="M360.74753,228.40306a2.83378,2.83378,0,0,1-.4575-1.24719,1.42256,1.42256,0,0,1,.23769-.75756,5.72728,5.72728,0,0,1,1.22043-1.47979,1.56257,1.56257,0,0,1,1.82952-.30842,3.56975,3.56975,0,0,1,1.57559,1.85362,5.02767,5.02767,0,0,1,.58985,3.13188c-.21319,1.51069-1.09092,2.15718-2.72835.882A7.99944,7.99944,0,0,1,360.74753,228.40306Z"></path><path class="cls-7" d="M363.15434,225.41574l-3.21913-2.43645a.57252.57252,0,0,1-.15678-.71772.42147.42147,0,0,1,.63653-.11735l3.219,2.4364a.57221.57221,0,0,1,.15679.71772A.42139.42139,0,0,1,363.15434,225.41574Z"></path><path class="cls-7" d="M362.18422,226.30383l-3.21919-2.43629a.57236.57236,0,0,1-.15667-.71778.42115.42115,0,0,1,.63636-.11729l3.21918,2.43629a.57232.57232,0,0,1,.15673.71772A.42136.42136,0,0,1,362.18422,226.30383Z"></path><path class="cls-7" d="M361.93221,227.78532l-3.21919-2.43651a.57244.57244,0,0,1-.15672-.71772.42126.42126,0,0,1,.63641-.11735l3.21907,2.43629a.57259.57259,0,0,1,.1569.71777A.42162.42162,0,0,1,361.93221,227.78532Z"></path><path class="cls-7" d="M362.1561,229.4825l-3.21913-2.43634a.5723.5723,0,0,1-.15667-.71783.42119.42119,0,0,1,.6363-.11741l3.21918,2.43646a.57223.57223,0,0,1,.15684.7176A.42135.42135,0,0,1,362.1561,229.4825Z"></path><path class="cls-7" d="M362.42519,231.85485a1.405,1.405,0,0,0,1.38972-1.428v-8.80552a1.4449,1.4449,0,0,0-1.45116-1.41292,1.405,1.405,0,0,0-1.38973,1.42786v8.80557A1.44485,1.44485,0,0,0,362.42519,231.85485Z"></path><path class="cls-7" d="M362.327,225.90839a.54437.54437,0,1,1,.34225-.12024A.54374.54374,0,0,1,362.327,225.90839Zm-.0004-.70488a.16022.16022,0,0,0-.1251.26078.16068.16068,0,1,0,.2498-.20216.158.158,0,0,0-.10744-.05783Z"></path><path class="cls-7" d="M362.333,224.40392a.52281.52281,0,0,1-.05867-.00368.54505.54505,0,0,1-.28437-.96639.55308.55308,0,0,1,.40013-.11723.53876.53876,0,0,1,.36636.1991.546.546,0,0,1-.08159.7665A.53941.53941,0,0,1,362.333,224.40392Zm-.00079-.70555a.16015.16015,0,0,0-.1251.26072.158.158,0,0,0,.10779.05861.15091.15091,0,0,0,.11808-.03451.161.161,0,0,0,.02439-.22547.1583.1583,0,0,0-.10784-.05862Z"></path><path class="cls-7" d="M362.33529,223.05963a.92191.92191,0,1,1,.57893-.20442A.91967.91967,0,0,1,362.33529,223.05963Zm-.0008-1.45858a.53227.53227,0,0,0-.337.11876.53868.53868,0,1,0,.337-.11876Z"></path><path class="cls-7" d="M435.239,251.26185c-.13376-1.89057-2.556-3.703-6.95353-6.99342l-1.403-.89063-3.5835,5.17912c4.29517,2.60529,8.61382,5.25534,10.02086,5.08056a2.13355,2.13355,0,0,0,1.52183-.95875,2.25042,2.25042,0,0,0,.4002-1.15316A2.17465,2.17465,0,0,0,435.239,251.26185Z"></path><path class="cls-7" d="M375.3425,243.46754a2.44626,2.44626,0,0,0-.3345,1.95247,2.00028,2.00028,0,0,0,.63449,1.05493,1.93177,1.93177,0,0,0,.21365.156c1.6127,1.01539,4.67641-.56823,10.502-2.56648l.38474-.12758-2.14586-5.06212C380.237,240.89,376.09491,242.28942,375.3425,243.46754Z"></path><path class="cls-7" d="M426.5724,242.04132l-10.19314-7.12622c-2.05284-1.6054-1.89532,1.77492-2.275,4.57972a5.05351,5.05351,0,0,0,1.99564,4.79873c1.61316,1.06263,3.5701,2.89181,5.85984,4.42106a1.03257,1.03257,0,0,0,1.42679-.26366l3.44222-4.98534A1.02631,1.02631,0,0,0,426.5724,242.04132Z"></path><path class="cls-7" d="M395.31446,233.51446c-2.64744,1.07406-6.62633,2.72784-10.34789,4.42814a.72566.72566,0,0,0-.3641.945l2.1,4.9541a.699.699,0,0,0,.84191.39736l14.936-4.42106c2.77492-.89119.10156-3.19418-1.87213-5.22342A4.94973,4.94973,0,0,0,395.31446,233.51446Z"></path><path class="cls-7" d="M365.34156,227.76354c9.04627,10.77094,14.7169,15.15126,12.94181,18.69454a1.11646,1.11646,0,0,1-1.04181.60467,3.71727,3.71727,0,0,1-2.27062-1.26043,76.49432,76.49432,0,0,1-11.38936-14.821c-.48331-.76225-.95915-1.50956-1.43527-2.24629Z"></path><path class="cls-7" d="M426.40917,310.94353c-1.33953-2.27463-3.02246-5.20843-4.7821-8.42694,0,0,10.55379-4.78447,10.58621-4.69072,0,0,1.08272,6.05159,2.57553,8.87562,1.39453,2.63782,1.41637,4.89634-1.22745,6.27955A5.39667,5.39667,0,0,1,426.40917,310.94353Z"></path><path class="cls-7" d="M411.39279,284.214c1.28307-6.47385,5.70577-7.82419,12.21176-8.61745,2.57524,5.66815,7.32447,13.89151,9.72545,21.36a1.4614,1.4614,0,0,1-.76332,1.75874c-3.89453,1.8788-7.12384,3.43685-10.34806,4.99241a1.34174,1.34174,0,0,1-1.76293-.56507A158.16716,158.16716,0,0,1,411.39279,284.214Z"></path><path class="cls-7" d="M452.15349,325.60442c.69034.56484,1.50056,1.22768,2.80247,2.39832,1.40874,1.26683,2.37552,2.23,3.62238,3.27209l-3.24448,2.77995c-.63414-.501-3.03332-2.26869-6.78221-5.11711Z"></path><path class="cls-7" d="M426.48459,307.09546c1.83422-3.67449,6.31684,1.54107,7.727-.36975,1.32556,1.36562,2.70136,2.86595,4.09816,4.41664,1.01165,1.12306,5.05278,5.58107,5.9808,6.59318,5.26072,5.73751,6.2193,6.52369,7.86295,7.86889l-3.60184,3.33325c-2.34-1.778-19.46635-15.29838-20.80911-16.42291A4.51455,4.51455,0,0,1,426.48459,307.09546Z"></path><path class="cls-7" d="M404.32151,280.8603c.08544,2.36143,2.78171,4.27577,6.02234,4.27577,3.24046,0,5.79817-1.91434,5.71268-4.27577-.0855-2.3616-2.78171-4.27593-6.02217-4.27593C406.79373,276.58437,404.23608,278.4987,404.32151,280.8603Z"></path><path class="cls-7" d="M380.05122,295.13079c1.6393-2.06908,3.76982-4.69593,6.13816-7.49688,0,0,8.26546,8.12124,8.18969,8.18517,0,0-5.25511,3.19028-7.35163,5.60031-1.95829,2.25121-4.05731,3.08532-6.30014,1.11735A5.39675,5.39675,0,0,1,380.05122,295.13079Z"></path><path class="cls-7" d="M399.57557,271.49283c6.50146-1.13556,9.35446,2.50367,12.43842,8.287-4.35968,4.44437-10.31983,11.83736-16.42167,16.76776a1.46123,1.46123,0,0,1-1.91563-.07842c-3.15576-2.956-5.77265-5.40714-8.38524-7.85446a1.34164,1.34164,0,0,1-.10818-1.84808A158.199,158.199,0,0,1,399.57557,271.49283Z"></path><path class="cls-7" d="M389.56506,325.21283c.1732.875.37671,1.90194.63653,3.63335.281,1.87348.41417,3.2318.71331,4.829l-4.27175.081c-.17059-.79-.89725-3.68008-1.9777-8.26274Z"></path><path class="cls-7" d="M381.53458,294.60261c3.75274-1.66827,3.8934,5.20747,6.19706,4.63035.60054,7.40227.62736,19.88839,1.83342,25.97987l-4.89961.28052c-.69136-2.93255-1.52637-6.55238-2.45728-10.77773-.921-4.17975-2.75506-11.13509-3.53671-15.33295A4.53065,4.53065,0,0,1,381.53458,294.60261Z"></path><path class="cls-7" d="M391.08639,240.13875c-.3801-3.77225,1.50413-5.95489,4.96723-7.18076a47.03673,47.03673,0,0,1-1.69865,25.33582C393.19983,251.73418,392.23186,251.505,391.08639,240.13875Z"></path><path class="cls-7" d="M393.7529,255.20866c2.89793-7.71533,3.99077-13.40769,2.30072-22.25067a19.955,19.955,0,0,1,3.33461-.83461c1.7253-.29077,8.34688.22462,13.13464,1.04521,1.62583,8.86888,4.02279,11.32684,9.22811,19.24857.90336,5.36675,1.12278,16.672,2.57185,23.98955.355,1.793.45734,3.94613-1.38446,3.90392-24.53882-.562-23.94116-2.8027-25.00787-3.60733C395.06941,274.54624,395.78091,266.72476,393.7529,255.20866Z"></path><path class="cls-7" d="M412.52287,233.16859c.08685.01493.17766.02913.26332.0443a9.10743,9.10743,0,0,1,7.2873,7.28424c.22977,1.71172.01918,2.27521,1.67749,12.12649C416.54566,244.70183,414.1487,242.03747,412.52287,233.16859Z"></path><path class="cls-7" d="M386.02337,331.07849l-5.379,1.90093c-1.31651.465-1.54159,1.446-.99361,2.18173l12.57721-.19135-.58294-2.93448a1.10879,1.10879,0,0,0-1.04923-.91377Z"></path><path class="cls-7" d="M453.38083,331.02955l-5.379,1.90093c-1.3165.465-1.54158,1.44613-.99365,2.18167l12.57726-.19141-.58295-2.93436a1.10877,1.10877,0,0,0-1.04922-.91377Z"></path><path class="cls-7" d="M423.833,262.84308a6.514,6.514,0,0,0-.021,1.84876c.20335.88983.9394,1.59047,1.12091,2.485.20776,1.024-.353,2.07615-.20233,3.1101a6.32755,6.32755,0,0,0,1.27158,2.38972,2.59709,2.59709,0,0,1,.43884,2.561,6.141,6.141,0,0,0-.57168.91162c-.33411,1.00492.94466,1.812,1.17556,2.8457.24471,1.09539-.75993,2.08447-1.78946,2.53162a6.26865,6.26865,0,0,1-3.67409.39929c-1.87281-.36653-3.62719-1.59268-5.51668-1.32522-.83513.11819-1.60518.52478-2.435.67585a8.16327,8.16327,0,0,1-3.25369-.29411c-2.49163-.57016-4.9867-1.14128-7.42208-1.91739a8.514,8.514,0,0,1-4.12408-2.33557,16.54889,16.54889,0,0,0,7.66068-.73311,16.29282,16.29282,0,0,0,4.2679-1.76468,7.1382,7.1382,0,0,0,2.96316-3.4549,37.17737,37.17737,0,0,0,.77056-3.98822,3.64484,3.64484,0,0,1,2.49576-2.92582,9.212,9.212,0,0,1,2.35809.17529,1.89811,1.89811,0,0,0,2.00124-.93776,2.31394,2.31394,0,0,0,.04017-1.07836q-.14029-1.15748-.28052-2.31481c-.05879-.48507-.34865-5.42553-.02682-5.793C422.578,252.20306,423.8737,262.17951,423.833,262.84308Z"></path><path class="cls-7" d="M416.75286,212.95107a7.59046,7.59046,0,0,1-.18253-2.15327,12.97975,12.97975,0,0,1,.737-1.87009,3.52119,3.52119,0,0,0-1.31469-3.93424,12.04485,12.04485,0,0,1-1.19362-.76021c-.93272-.80938-1.012-2.20725-1.55262-3.31781a4.27555,4.27555,0,0,0-4.73134-2.20651,3.36574,3.36574,0,0,1-1.27985.2163,2.83052,2.83052,0,0,1-1.07383-.53106,5.49977,5.49977,0,0,0-2.74437-.95134,3.48708,3.48708,0,0,0-2.66566,1.01154,17.06187,17.06187,0,0,1-1.44749,1.84757c-.84315.67885-2.14716.69616-2.81735,1.54622-.57639.73119-.468,1.83077-1.02931,2.57338-.34446.45593-.90494.72333-1.207,1.20844-.46447.74607-.17059,1.70856-.20624,2.58674-.02116.52251-.16516,1.03649-.15944,1.55929a5.47316,5.47316,0,0,0,.28471,1.4583q.40762,1.39875.81532,2.79732c.11542.396.34129.87688.75342.85962a.78937.78937,0,0,0,.37886-.14377,5.07349,5.07349,0,0,0,1.67828-2.37631q.82461-1.8489,1.64943-3.69768a2.96843,2.96843,0,0,1,.80587-1.21438,2.44424,2.44424,0,0,1,2.33388-.07565c2.09324.81255,3.5822,2.64246,5.1794,4.22066a4.12755,4.12755,0,0,0,1.77181,1.18937c.51414.13273,1.06065.07717,1.57949.19113a2.50587,2.50587,0,0,1,1.77571,1.5392,7.576,7.576,0,0,0,.6393,1.99915,1.62842,1.62842,0,0,0,2.46735-.054A5.2148,5.2148,0,0,0,416.75286,212.95107Z"></path><path class="cls-7" d="M414.37983,218.47686a3.37218,3.37218,0,0,0-1.23916,1.113,9.81042,9.81042,0,0,0-.29315,1.06365,1.78349,1.78349,0,0,1-1.62645,1.1621c-.79263.00583-1.61027-.52-2.3319-.1922-.73424.33331-1.09482,1.457-1.89651,1.37065-.32952-.03536-.61463-.2907-.9459-.28324-.48048.01087-.85906.568-1.33037.47454-.51-.101-.56343-.83071-.35691-1.30757.50028-1.15531,1.71245-1.863,2.28844-2.98256.588-1.14275.49446-2.66583,1.45915-3.51471,1.16957-1.02913,3.1436-.39566,4.419-1.29031.769-.53955,1.15944-1.56144,2.02557-1.92508a1.69555,1.69555,0,0,1,2.23061,1.97125A6.23069,6.23069,0,0,1,414.37983,218.47686Z"></path><path class="cls-7" d="M408.01122,208.26748a5.39978,5.39978,0,0,1,1.4338.5589c2.6514,1.567,1.89668,4.17918.85181,7.64206l-.3693,1.14376.05879,3.66312c-1.65825,5.49009-6.5723,8.40832-11.13334,6.95274-4.561-1.455-7.11048-6.75494-5.45274-12.24474l2.00469-6.5431a4.75361,4.75361,0,0,1,4.57926-3.20159Z"></path><path class="cls-7" d="M394.86838,211.67219l1.81662.51624a.50238.50238,0,0,1-.27464.9665l-1.81651-.51612a.50242.50242,0,0,1,.27453-.96662Z"></path><path class="cls-7" d="M402.963,213.89772l1.81662.51618a.50239.50239,0,0,1-.27469.9665l-1.81645-.51624a.50234.50234,0,0,1,.27452-.96644Z"></path><path class="cls-7" d="M394.75929,213.8997c-.1346.47414.00561.92933.31317,1.01663.30763.08753.66618-.22593.801-.7s-.00531-.92922-.313-1.01663C395.25267,213.1121,394.894,213.42561,394.75929,213.8997Z"></path><path class="cls-7" d="M402.3648,216.346c-.13466.474.00555.92921.31312,1.01657.30779.08753.66634-.226.80111-.7.13484-.47409-.00554-.92922-.31305-1.0168C402.85829,215.5584,402.49946,215.87174,402.3648,216.346Z"></path><path class="cls-7" d="M396.97141,217.394l.11508-.1419a.99694.99694,0,0,0,.45581.99949l.86964.53236a.757.757,0,0,0,.88016-.07282l-.00645.09726a.78223.78223,0,0,1-1.18824.61627l-.86958-.53236A1.0106,1.0106,0,0,1,396.97141,217.394Z"></path><path class="cls-7" d="M399.546,222.05743a1.62717,1.62717,0,0,1-3.04146-.93324Z"></path><path class="cls-7" d="M411.27839,217.3744c-1.41151-.45174-3.00554.66917-3.56054,2.5026-.55516,1.83331.13953,3.68557,1.55109,4.13686,1.41168.45134,3.00583-.66895,3.56082-2.50215C413.38464,219.67772,412.69006,217.82585,411.27839,217.3744Z"></path><path class="cls-7" d="M405.51292,238.31919a3.43786,3.43786,0,0,1-3.68122-3.65485l-.23752-12.15987c-.01731-.89091.51165-1.624,1.17562-1.62521h4.82855c.664-.001,1.22163.72473,1.23894,1.61587l.235,12.01531A3.44605,3.44605,0,0,1,405.51292,238.31919Z"></path><path class="cls-7" d="M410.6818,216.55466s.17755-7.84348-9.75453-8.05933c0,0-4.65921-.02733-3.91931-1.94913l4.13177-2.16165,11.0634,3.93594,2.199,3.52823Z"></path><path class="cls-7" d="M408.589,252.66827a2.23424,2.23424,0,0,0,.36913-1.8272l.30864-.194,1.70148-.29682c14.76952-.25274,22.03651-2.11186,23.7308,1.57864a1.11589,1.11589,0,0,1-.18009,1.1909,3.71674,3.71674,0,0,1-2.40381.98291,76.4997,76.4997,0,0,1-18.68759-.388c-.97295-.10835-5.16424-.55007-5.16424-.55007Z"></path><path class="cls-7" d="M411.66387,255.14693a1.42466,1.42466,0,0,0-.06784-2.00769l-6.43317-6.01278a1.42046,1.42046,0,0,0-1.93991,2.07548l6.43329,6.01277A1.42457,1.42457,0,0,0,411.66387,255.14693Z"></path><path class="cls-7" d="M406.48231,247.93726a.52152.52152,0,0,0,.20375.72371l2.44511,1.60354a.57856.57856,0,0,0,.78075-.07779.52123.52123,0,0,0-.20375-.72355l-2.445-1.60371A.5789.5789,0,0,0,406.48231,247.93726Z"></path><path class="cls-7" d="M408.00256,253.9962a2.83183,2.83183,0,0,1-1.22088-.52382,1.42391,1.42391,0,0,1-.38752-.69293,5.73113,5.73113,0,0,1-.23769-1.90336,1.5629,1.5629,0,0,1,1.03213-1.54181,3.57014,3.57014,0,0,1,2.42944.12742,5.02758,5.02758,0,0,1,2.68179,1.7219c.95185,1.19232.81911,2.27436-1.23237,2.589A7.99942,7.99942,0,0,1,408.00256,253.9962Z"></path><path class="cls-7" d="M407.48361,250.19526l-3.98172.66714a.57265.57265,0,0,1-.62945-.37892.42158.42158,0,0,1,.35181-.54334l3.98161-.667a.57222.57222,0,0,1,.6294.37881A.42134.42134,0,0,1,407.48361,250.19526Z"></path><path class="cls-7" d="M407.463,251.51041l-3.98154.66719a.57233.57233,0,0,1-.62946-.379.42112.42112,0,0,1,.35171-.54311l3.9816-.66725a.57218.57218,0,0,1,.62934.37892A.42139.42139,0,0,1,407.463,251.51041Z"></path><path class="cls-7" d="M408.36694,252.71081l-3.98183.66714a.57249.57249,0,0,1-.62934-.37892.42132.42132,0,0,1,.3517-.54322l3.9816-.66725a.5727.5727,0,0,1,.62952.37891A.42159.42159,0,0,1,408.36694,252.71081Z"></path><path class="cls-7" d="M409.75446,253.71342l-3.98166.66725a.57207.57207,0,0,1-.62935-.379.42127.42127,0,0,1,.35159-.54328l3.98172-.667a.5722.5722,0,0,1,.6294.3787A.42124.42124,0,0,1,409.75446,253.71342Z"></path><path class="cls-7" d="M364.10823,223.13726a.52157.52157,0,0,0-.38616.64518l.51335,2.87858a.57839.57839,0,0,0,.59256.51414.52127.52127,0,0,0,.38616-.645l-.51318-2.87868A.579.579,0,0,0,364.10823,223.13726Z"></path><path class="cls-7" d="M360.74753,228.40306a2.83378,2.83378,0,0,1-.4575-1.24719,1.42256,1.42256,0,0,1,.23769-.75756,5.72728,5.72728,0,0,1,1.22043-1.47979,1.56257,1.56257,0,0,1,1.82952-.30842,3.56975,3.56975,0,0,1,1.57559,1.85362,5.02767,5.02767,0,0,1,.58985,3.13188c-.21319,1.51069-1.09092,2.15718-2.72835.882A7.99944,7.99944,0,0,1,360.74753,228.40306Z"></path><path class="cls-7" d="M363.15434,225.41574l-3.21913-2.43645a.57252.57252,0,0,1-.15678-.71772.42147.42147,0,0,1,.63653-.11735l3.219,2.4364a.57221.57221,0,0,1,.15679.71772A.42139.42139,0,0,1,363.15434,225.41574Z"></path><path class="cls-7" d="M362.18422,226.30383l-3.21919-2.43629a.57236.57236,0,0,1-.15667-.71778.42115.42115,0,0,1,.63636-.11729l3.21918,2.43629a.57232.57232,0,0,1,.15673.71772A.42136.42136,0,0,1,362.18422,226.30383Z"></path><path class="cls-7" d="M361.93221,227.78532l-3.21919-2.43651a.57244.57244,0,0,1-.15672-.71772.42126.42126,0,0,1,.63641-.11735l3.21907,2.43629a.57259.57259,0,0,1,.1569.71777A.42162.42162,0,0,1,361.93221,227.78532Z"></path><path class="cls-7" d="M362.1561,229.4825l-3.21913-2.43634a.5723.5723,0,0,1-.15667-.71783.42119.42119,0,0,1,.6363-.11741l3.21918,2.43646a.57223.57223,0,0,1,.15684.7176A.42135.42135,0,0,1,362.1561,229.4825Z"></path><path class="cls-7" d="M362.42519,231.85485a1.405,1.405,0,0,0,1.38972-1.428v-8.80552a1.4449,1.4449,0,0,0-1.45116-1.41292,1.405,1.405,0,0,0-1.38973,1.42786v8.80557A1.44485,1.44485,0,0,0,362.42519,231.85485Z"></path><path class="cls-7" d="M362.327,225.90839a.54437.54437,0,1,1,.34225-.12024A.54374.54374,0,0,1,362.327,225.90839Zm-.0004-.70488a.16022.16022,0,0,0-.1251.26078.16068.16068,0,1,0,.2498-.20216.158.158,0,0,0-.10744-.05783Z"></path><path class="cls-7" d="M362.333,224.40392a.52281.52281,0,0,1-.05867-.00368.54505.54505,0,0,1-.28437-.96639.55308.55308,0,0,1,.40013-.11723.53876.53876,0,0,1,.36636.1991.546.546,0,0,1-.08159.7665A.53941.53941,0,0,1,362.333,224.40392Zm-.00079-.70555a.16015.16015,0,0,0-.1251.26072.158.158,0,0,0,.10779.05861.15091.15091,0,0,0,.11808-.03451.161.161,0,0,0,.02439-.22547.1583.1583,0,0,0-.10784-.05862Z"></path><path class="cls-7" d="M362.33529,223.05963a.92191.92191,0,1,1,.57893-.20442A.91967.91967,0,0,1,362.33529,223.05963Zm-.0008-1.45858a.53227.53227,0,0,0-.337.11876.53868.53868,0,1,0,.337-.11876Z"></path><polygon class="cls-8" points="315.829 310.068 295.592 310.068 301.137 368.013 307.512 368.013 315.829 310.068"></polygon><path class="cls-9" d="M303.03708,302.42968h3.74162a8.834,8.834,0,0,1,8.834,8.834V362.2028a0,0,0,0,1,0,0H294.20312a0,0,0,0,1,0,0V311.26364a8.834,8.834,0,0,1,8.834-8.834Z"></path><polygon class="cls-8" points="319.124 310.107 339.361 310.107 333.816 367.975 327.441 367.975 319.124 310.107"></polygon><path class="cls-9" d="M329.83552,296.99817h0A10.95485,10.95485,0,0,1,340.79039,307.953V362.2028H318.88067V307.953A10.95485,10.95485,0,0,1,329.83552,296.99817Z"></path><path class="cls-9" d="M329.07759,321.94552a11.84735,11.84735,0,0,1-10.72527-6.80981c-.31048-.94177-.59337-1.75248-.82449-2.39067-.37949-1.03838-.62095-1.63518-.62095-1.63518s-.00691.07588-.02416.22077l-.10005-.01034a11.35189,11.35189,0,0,1-22.63728-1.22466h-.00688c-.0276-5.30227.031-11.25309.28631-17.88353.138-3.62569,44.79505,4.57093,44.79505,4.57093s.59335,4.75031,1.25915,10.06637v.00345c.1449,1.16948.29669,2.36653.445,3.54981v.01034A11.85332,11.85332,0,0,1,329.07759,321.94552Z"></path><path class="cls-9" d="M316.84821,310.09563a11.02117,11.02117,0,0,1-.06554,1.22466,11.35932,11.35932,0,1,1,.06554-1.22466Z"></path><path class="cls-9" d="M340.9275,310.09563c0,.10349,0,.20352-.00345.307v.01034a11.8508,11.8508,0,0,1-22.57173,4.72271,11.3168,11.3168,0,0,1-.82449-2.39067A11.85223,11.85223,0,0,1,340.479,306.8494v.00345A11.83567,11.83567,0,0,1,340.9275,310.09563Z"></path><path class="cls-7" d="M277.45863,276.35208l-2.18412-5.07609a10.42737,10.42737,0,0,0-.69033-1.912l.04708-.0238-.356-.66769c-.08942-.20062-.17787-.40243-.26238-.60685a5.616,5.616,0,0,0-.83219-1.446l-5.44745-10.21686,2.85614-1.58349c-.04894.01-.87681-.31985-13.59623-19.29978a10.27507,10.27507,0,0,0-.86627-3.73505v-.00152a3.22552,3.22552,0,0,0-.27447-.41855,11.30765,11.30765,0,0,0-3.80779-2.81908,21.968,21.968,0,0,0-3.33467-1.30412l-.01364-.00383,0-.00073-.33129-7.85782c1.37674.318,3.11259-.77755,4.08661-2.67441,1.0873-2.117.81435-4.42653-.61262-5.159-1.21924-.62629-2.88581.10312-4.02313,1.65294a.84124.84124,0,0,1-.0182-.08947v-.00035l.56334-.55113a5.112,5.112,0,0,0,.25829-5.68506c-.81324-1.22387.81324-4.85637-1.84337-5.18168s-2.68189-3.65142-5.9222-3.80458-2.53554-4.43628-6.38489-4.111-10.62638-2.11444-11.87335,1.03009-5.04213,9.10833-.70482,9.59629a6.4074,6.4074,0,0,1,2.32011.74345c-.01057.0787-.01968.15743-.02873.23612.0561.11827.13193.28358.21685.49284a9.563,9.563,0,0,1,.44279,1.37693c.04853.19717.09251.40794.1289.6278l.00151.01063.00018.001a.89451.89451,0,0,0,.02978.18151l.0019.0116v.003a8.06162,8.06162,0,0,1-.3124,3.76079,7.9438,7.9438,0,0,1-.95837,1.92588,3.25847,3.25847,0,0,0-.58234,1.79851v.05a11.23663,11.23663,0,0,0,1.22986,5.1832c.0561.11526.11675.229.18044.33968,1.49522,2.69474,4.48262,3.76989,7.73388,4.12171a1.66877,1.66877,0,0,1,.38062.088,17.32859,17.32859,0,0,0,2.39954.15555,7.981,7.981,0,0,1,.513,1.648l.00108.00616c-.06173.02266-.12642.04024-.18759.0636-.29269.11374-.58384.23505-.86741.37a11.16891,11.16891,0,0,0-2.99044,2.026,12.456,12.456,0,0,0-2.86911,4.7692,33.81361,33.81361,0,0,0-1.49454,5.90758c-12.35481,22.87778-8.89869,16.50832-8.89869,16.50832l1.32959.64472-6.11728,13.459-.01834.0104-3.5196,2.36041a.82937.82937,0,0,0-.2566,1.14395.83873.83873,0,0,0,1.162.19033l1.273-.85374c-.014.1077-.02362.21586-.03025.32484a.74785.74785,0,0,0-.09625.21347l-.90873,6.0127a.75655.75655,0,0,0,1.48917.222l.61672-4.08468a2.83261,2.83261,0,0,0,.49523.29733l-.6748,4.46489a.75655.75655,0,0,0,1.48824.223l.61724-4.08387q.36335.12291.73533.217l-.47508,3.14339a.75655.75655,0,0,0,1.48824.223l.473-3.12938a2.10923,2.10923,0,0,0,.25727-.03113l-.25578,1.69236a.75656.75656,0,0,0,1.48827.22287l.51585-3.41316c.80921-1.25632.84308-2.82878,1.10295-4.39657.03451-.20791.05808-.40409.0744-.59244l5.10859-10.91423.10326.05c-.05531,2.77779-.0872,5.84812-.20544,10.94623-.04243,1.81822-.09248,3.32106-.1486,4.55536.229.273.53684.62632.94172,1.10558.05914.0702.12884.13281.1935.19909-.13278,4.23473-.16406,8.09082-.1459,11.578h.00526a8.713,8.713,0,0,0,.11152,1.32547,8.24311,8.24311,0,0,0-.06731,1.002v18.92258h3.09959l2.14406,22.40536c-1.53654.666-3.17029,1.53508-4.51828,1.98566-1.92209.6425-1.79106,1.4612-1.32573,2.04489a2.03253,2.03253,0,0,0,1.59667.74347h10.28159c.63333,0-.10039-.979-1.05836-4.25423l3.29072-22.92515h2.88736V292.7515a8.62664,8.62664,0,0,0,.89611-3.00433l.07663.00794c.0132-.111.01851-.16914.01851-.16914s.18494.45713.47558,1.25241a8.66794,8.66794,0,0,0,.63149,1.83107c.12186.259.25975.50852.40465.7534v16.63637h3.2393l3.29077,22.89519c-.9579,3.275-1.69157,4.25394-1.05824,4.25394h10.2816a2.03251,2.03251,0,0,0,1.59666-.74342c.46533-.58374.59633-1.40244-1.32573-2.04488-1.348-.45064-2.98168-1.31957-4.51816-1.98566l2.144-22.37517h3.13046V290.14688a9.08392,9.08392,0,0,0,.10238-1.0946v-.00794c.00266-.07926.00266-.15588.00266-.23514a9.15866,9.15866,0,0,0-.105-1.36874v-.27228a8.358,8.358,0,0,0-.48026-2.77662c-.15462-1.23535-.29663-2.37066-.41323-3.30319a2.94726,2.94726,0,0,0,.89871-1.20685c.69758-1.66205.45949-4.38406-.28509-8.0903-2.6029-12.98953-3.869-16.03983-4.3975-19.55917l4.18032,7.56221,1.06578-.5909,5.11767,10.99228c-.055.26369-.11094.5485-.17241.86653a4.78288,4.78288,0,0,0,.04749,2.17933l-1.22569,2.7174a.82649.82649,0,0,0,.38482,1.103.83579.83579,0,0,0,1.08347-.45041l.71956-1.59535a2.81221,2.81221,0,0,0,.24492.20255l2.26095,5.25468a.75385.75385,0,0,0,1.37692-.59572l-1.77535-4.12445a2.80794,2.80794,0,0,0,.29412-.03067c.098-.00887.19472-.02628.29231-.03813l2.18412,5.07614a.75386.75386,0,0,0,1.37663-.59449l-2.0589-4.78512c.15929-.04544.319-.08924.47584-.14285l1.70889,3.97167a.75386.75386,0,0,0,1.37663-.59449l-1.73289-4.02739a2.08992,2.08992,0,0,0,.28252-.2874l1.13852,2.646a.75385.75385,0,0,0,1.37663-.59443ZM234.136,205.77529a.10713.10713,0,0,1,.00152-.02275.30747.30747,0,0,1,.01516-.07432l-.00374.02105a.39715.39715,0,0,0-.01078.05394l-.00067.01764Z"></path><path class="cls-7" d="M270.59242,254.81752l-.003.00169Z"></path><polyline class="cls-8" points="281.866 284.017 289.753 264.937 298.09 267.73 290.62 285.242"></polyline><path class="cls-8" d="M286.71453,280.4381c-2.17431.61392-2.904,1.33568-4.59861,3.2893a1.0978,1.0978,0,0,0-.1977.11941l-4.48605,3.23892a1.083,1.083,0,0,0-.28319,1.50432,1.09519,1.09519,0,0,0,1.52493.19593l1.61782-1.16806c-.01317.14031-.02222.28123-.02592.42281a.98717.98717,0,0,0-.11008.28185l-.91431,7.88679a.98779.98779,0,0,0,1.95321.22245l.62-5.35551a3.69477,3.69477,0,0,0,.65887.37228l-.67791,5.84765a.98779.98779,0,0,0,1.952.2237l.6205-5.35241q.47955.14384.96934.24977l-.47751,4.119a.98779.98779,0,0,0,1.952.22369l.47565-4.103a2.74875,2.74875,0,0,0,.334-.0499l-.25687,2.21571a.9878.9878,0,0,0,1.952.22369l.51843-4.472c1.00176-1.67669.97274-3.73246,1.24126-5.79171C291.6046,280.7413,289.5686,279.63215,286.71453,280.4381Z"></path><path class="cls-10" d="M310.23083,240.83352a.56144.56144,0,0,1,.30424.71691h0l-8.30319,21.823-2.42277,7.26119-1.32185-.58439L289.76,266.19014l-2.20812-.97764s-.51156,1.02466-.54364,1.08245c.04873-.11036,1.90762-3.87439,11.7211-23.65295.88624-1.784,1.51978-3.47538,2.167-5.15713a.56121.56121,0,0,1,.74393-.31408Z"></path><line class="cls-11" x1="309.01112" y1="241.36549" x2="301.20273" y2="234.40492"></line><path class="cls-12" d="M324.18334,232.76157c-6.03908,12.43877-11.62825,24.43961-14.09995,29.78152a1.3199,1.3199,0,0,1-2.44265-.11517c-2.8939-8.19315-9.91205-30.43235-1.72641-32.73672Z"></path><path class="cls-10" d="M340.7972,298.43915c-1.19392,2.84915-4.48854,3.32236-11.14909,1.20974-11.747-3.71833-30.75453.79-35.57174-4.93006-.52865-.62567-.93057-1.087-1.22955-1.44339.07326-1.61167.1386-3.5738.194-5.94776.32075-13.82993.15445-16.23557.788-27.51731.47716-8.4128,1.39784-15.596,3.30255-20.76371a16.26358,16.26358,0,0,1,3.74606-6.22694,14.58316,14.58316,0,0,1,3.90445-2.64521c.37025-.17622.75041-.33461,1.13254-.48311.45142-.17225.91473-.33066,1.384-.46924h.002c.09305-.02772.18612-.05545.27917-.07921a29.06144,29.06144,0,0,1,15.71089.56627,28.681,28.681,0,0,1,4.35391,1.70276,14.76339,14.76339,0,0,1,4.97164,3.68072,4.21081,4.21081,0,0,1,.35837.54646v.002c1.04937,1.93243,1.35231,5.77946,1.36617,11.11543.00395,1.3325-.0099,2.75013-.03762,4.26083v.004c3.92053,17.32651,3.23988,22.47179,6.122,36.85475C341.39713,292.71512,341.708,296.26913,340.7972,298.43915Z"></path><path class="cls-13" d="M316.0344,221.27175l.1522.52216.20262.11215,2.93735-.85354.01422-.0069a.15491.15491,0,0,0,.10038-.20056l-.00056-.0032-.15-.51594-.00131-.00748a.16228.16228,0,0,0-.20131-.10467l-.12266.03584-2.82142.82329-.00427.00075A.15933.15933,0,0,0,316.0344,221.27175Z"></path><path class="cls-7" d="M316.0344,221.27175l.1522.52216.20262.11215,2.93735-.85354.01422-.0069a.15491.15491,0,0,0,.10038-.20056l-.00056-.0032-.15-.51594-.00131-.00748a.16228.16228,0,0,0-.20131-.10467l-.12266.03584-2.82142.82329-.00427.00075A.15933.15933,0,0,0,316.0344,221.27175Z"></path><g id="Group_291" data-name="Group 291"><path id="Path_374" data-name="Path 374" class="cls-8" d="M322.6207,215.96354l-.07165,1.2397-.025.42011c.00434-.00759.01194-.01194.01628-.01954l.0228-.39514.07164-1.22124A.17215.17215,0,0,0,322.6207,215.96354ZM324.85911,233.48q-.27681-.45267-.60031-.88256c-.3007-.09118-.60357-.17911-.91078-.26379a36.60426,36.60426,0,0,0-9.6104-1.32763h-.00109a28.00428,28.00428,0,0,0-6.39825.70344q-.47872.11235-.94769.24425l-.02714-.18455c-.09878.09119-.19214.1813-.29093.27465h-.00325c-.53409.15741-1.0595.33761-1.57406.53409a4.75114,4.75114,0,0,0-.12158.52975c-.01954.19215-.03907.38429-.05427.57643-.01194.10638-.01954.21169-.03149.31807q-.21,2.32525-.28549,4.66136v.00109q-.08794,2.70465.00651,5.41366a2.168,2.168,0,0,0,.01845.30612c.00434.03148.00869.06188.01411.09227.24208,1.41231,1.81179,2.15917,3.58558,1.853a5.24287,5.24287,0,0,0,1.49807-.50586q3.4602-1.77814,6.953-3.50743,2.28454-1.1382,4.58429-2.25035.62366-.3045,1.24947-.60574C324.67457,238.12945,326.012,235.39494,324.85911,233.48Z"></path><path class="cls-8" d="M322.71623,217.53759l-.19214,6.18548.25727-4.40734Z"></path><path class="cls-8" d="M323.33825,231.23728l-.07165-1.53606-.229-4.90453-.25619-5.481-.25727,4.40734.19214-6.18548.06513,1.77814.11616-2.00068.01845-.3083.01628.00435v-.0076a1.16544,1.16544,0,0,0,.20408.04885l.02714.00108a9.3582,9.3582,0,0,0-.52866-1.066.17215.17215,0,0,0-.01411-.02389,9.62115,9.62115,0,0,0-1.95508-2.39039v-.01628l-.00217.0152c-.0228-.02171-.04668-.04234-.06948-.063a9.6286,9.6286,0,0,0-14.5551,2.30681l-.127-.01412a.16227.16227,0,0,0-.1802.13787v.00759l-.05862.5341a9.63383,9.63383,0,0,0,.94552,10.11844h0a4.64151,4.64151,0,0,1,.8489,2.57385,4.71376,4.71376,0,0,1-.00217.55363l-.01412.22254-.11289,1.75968-.266,4.1555a4.35376,4.35376,0,0,0-2.57711,2.81375c.51456-.19648,1.04105-.37669,1.57406-.53517h.00325c.09988-.09337.19215-.18346.29093-.27248l.02606.18346c5.67853-1.59359,9.237-2.07232,14.79609-.38646-.17152-.23556.48307-.18237,1.11594-1.015a4.21935,4.21935,0,0,0,.65351-1.35368v-.00109a10.50544,10.50544,0,0,0,.38537-2.67806c.00326-.09336.00651-.18888.0076-.28659C323.35453,231.99174,323.35128,231.627,323.33825,231.23728Z"></path></g><path class="cls-8" d="M323.29374,217.38236a2.67262,2.67262,0,0,1-.39622-.06731,2.59959,2.59959,0,0,1-.33435-.10638l-.01412-.00543c-.07381-.02931-.14654-.063-.21819-.09987a3.27388,3.27388,0,0,1-1.6164-2.589l-.00216-.00977v-.00218c-.00217-.01194-.00326-.025-.00435-.038l-.0076-.05862a5.38247,5.38247,0,0,1-.03473-.83262,9.62115,9.62115,0,0,1,1.95508,2.39039.17215.17215,0,0,1,.01411.02389,9.3582,9.3582,0,0,1,.52866,1.066C323.20907,217.162,323.25358,217.27163,323.29374,217.38236Z"></path><path class="cls-14" d="M320.7123,214.50238a1.84129,1.84129,0,0,1-.07274-.571c.025.20951.04669.37234.06079.47438l.0076.05862.00651.04777-.00216-.0076Z"></path><path class="cls-14" d="M320.66345,213.57207c-.0152.13895-.0228.25727-.02389.35932-.01411-.12484-.0293-.267-.04559-.42229C320.61677,213.52973,320.64065,213.55036,320.66345,213.57207Z"></path><path class="cls-15" d="M324.06866,215.36925a1.24859,1.24859,0,0,0,.05186.20141,1.00783,1.00783,0,0,0,.084.209,1.32471,1.32471,0,0,0,.53526.55086,1.38222,1.38222,0,0,0,.61732.1893,1.41541,1.41541,0,0,0,.7151-.15187l.81783-.55894.52558-.3589.0511-.03541a2.00629,2.00629,0,0,0,.59752-2.27378c-.00658-.01869-.014-.03611-.0217-.05461s-.01531-.037-.02189-.05568a1.88364,1.88364,0,0,0-.26241-.42788l-.20364-.27509-.00559-.00673a1.83754,1.83754,0,0,1-.66619,1.8571l-1.39326.95414a1.15579,1.15579,0,0,1-.88255.146c-.00353.005-.00912-.00171-.00912-.00171a.2843.2843,0,0,1-.04935-.01118A1.48319,1.48319,0,0,1,324.374,215.2l-.01308-.00542a.52544.52544,0,0,1-.108-.06923.0616.0616,0,0,1-.03645-.02556c-.00321.00056-.00377-.00265-.00805-.0019l-.00075-.00428a.20063.20063,0,0,1-.06786-.0476.91544.91544,0,0,1-.10919-.101l-.00559-.00673.02012.18383.00131.00749A1.59013,1.59013,0,0,0,324.06866,215.36925Z"></path><path class="cls-16" d="M312.32546,205.49071a.91058.91058,0,0,0,.15356.3037c.02524.03084.04993.05847.07461.0861a.71971.71971,0,0,0,.06245.06069.57554.57554,0,0,0,.06541.05245.90819.90819,0,0,0,.5545.1893c.02748-.00042.05585-.00208.08333-.0025a.71071.71071,0,0,0,.20176-.031l3.44825-1.00706a.94332.94332,0,0,0,.62479-.57248l.05236-.51836a.56972.56972,0,0,0-.01282-.06058.26238.26238,0,0,0-.00927-.04025.38077.38077,0,0,0-.03612-.09285.932.932,0,0,0-.3106-.40732c-.02658-.01959-.05348-.03471-.08094-.053a.93548.93548,0,0,0-.7667-.10468l-3.45253,1.00782A.9605.9605,0,0,0,312.32546,205.49071Z"></path><path class="cls-16" d="M315.856,221.30305l.15113.52235.20369.112,2.93735-.85354.01422-.0069a.15565.15565,0,0,0,.10038-.20056l-.15057-.51915-.00131-.00748a.16227.16227,0,0,0-.20131-.10466l-2.94515.85931-.00321.00057A.15853.15853,0,0,0,315.856,221.30305Z"></path><path class="cls-17" d="M315.856,221.30305l.15113.52235.20369.112,2.93735-.85354.01422-.0069a.15565.15565,0,0,0,.10038-.20056l-.15057-.51915-.00131-.00748a.16227.16227,0,0,0-.20131-.10466l-2.94515.85931-.00321.00057A.15853.15853,0,0,0,315.856,221.30305Z"></path><g id="Group_291-2" data-name="Group 291"><path id="Path_374-2" data-name="Path 374" class="cls-8" d="M323.06677,209.56265a1.01212,1.01212,0,0,0,.08385.20792,1.32806,1.32806,0,0,0,.53545.55193,1.41637,1.41637,0,0,1-.53807-.5669A1.777,1.777,0,0,1,323.06677,209.56265Zm.6193.75985a1.377,1.377,0,0,0,1.33224.03636l.79423-.54268.60028-.41058a1.99312,1.99312,0,0,0,.64165-2.14155,2.0929,2.0929,0,0,1,.07532.37915,2.01437,2.01437,0,0,1-.72256,1.75567l-.59443.40624-.80009.547A1.38832,1.38832,0,0,1,323.68607,210.3225Zm-7.15156-12.47263a.70288.70288,0,0,1,.03161.08593c.0092.03365.01967.06819.02642.10668a.80182.80182,0,0,0-.02191-.09976A.35458.35458,0,0,0,316.53451,197.84987ZM314.802,215.294l.15131.52342.20369.112.93859-.27262,1.99857-.582.01441-.00583a.15722.15722,0,0,0,.1002-.20163l-.15057-.51914-.00131-.00748a.1623.1623,0,0,0-.20113-.1036l-2.3078.67259-.63753.18566-.00321.00056A.15914.15914,0,0,0,314.802,215.294Zm-12.05038,9.21343.09071.38525c.0056.00674.01382.00971.01942.01644l-.09717-.40948Z"></path><path class="cls-8" d="M302.71762,225.29365c.01426.01844.02763.03814.04207.05765l-.102-.4935Z"></path><path class="cls-8" d="M302.75165,224.50739l.09071.38525c.0056.00674.01382.00971.01942.01644l-.09717-.40948Zm21.317-9.13814a1.24859,1.24859,0,0,0,.05186.20141,1.00783,1.00783,0,0,0,.084.209,1.32471,1.32471,0,0,0,.53526.55086,1.38222,1.38222,0,0,0,.61732.1893.621.621,0,0,0,.02162.08549.58034.58034,0,0,0,.043.10707.68362.68362,0,0,0,.27294.28056.70173.70173,0,0,0,.67888.01869l.71047-.4861a1.02076,1.02076,0,0,0,.33158-1.07542l.0511-.03541a2.00629,2.00629,0,0,0,.59752-2.27378,1.503,1.503,0,0,0,.58418-.03744c1.09084-.29051,1.64777-1.75262,1.24463-3.26567s-1.615-2.50291-2.70581-2.2124a.483.483,0,0,0-.05341.016,1.99567,1.99567,0,0,0-.0794-.37733,2.0929,2.0929,0,0,1,.07532.37915,2.18941,2.18941,0,0,0-1.317,2.16191l-.80009.547a1.38832,1.38832,0,0,1-1.32664-.02962,1.377,1.377,0,0,0,1.33224.03636l.79423-.54268a3.81288,3.81288,0,0,0,.13011,1.07489,3.146,3.146,0,0,0,1.63039,2.11336,1.83371,1.83371,0,0,1-.69018,1.17359l-1.39326.95414a1.15579,1.15579,0,0,1-.88255.146c-.00353.005-.00912-.00171-.00912-.00171a.2843.2843,0,0,1-.04935-.01118A1.48319,1.48319,0,0,1,324.374,215.2l-.01308-.00542a.52544.52544,0,0,1-.108-.06923.0616.0616,0,0,1-.03645-.02556c-.00321.00056-.00377-.00265-.00805-.0019l-.00075-.00428a.20063.20063,0,0,1-.06786-.0476.91544.91544,0,0,1-.10919-.101l-.00559-.00673.02012.18383.00131.00749A1.59013,1.59013,0,0,0,324.06866,215.36925Zm1.58562-9.77951a.8911.8911,0,0,0,.98613.74621l2.74713-.74413a.76333.76333,0,0,0,.50952-.69554l-.00037-.00213c-.00348-.09528-.00483-.19092-.00562-.28337l.00051-.0034a1.12828,1.12828,0,0,0-.03184-.15642.89239.89239,0,0,0-.98506-.7464l-2.74714.74413A.89275.89275,0,0,0,325.65428,205.58974Zm-2.58751,3.97291a1.01212,1.01212,0,0,0,.08385.20792,1.32806,1.32806,0,0,0,.53545.55193,1.41637,1.41637,0,0,1-.53807-.5669A1.777,1.777,0,0,1,323.06677,209.56265Zm-3.49716,9.99685a2.50973,2.50973,0,0,0,2.72314,2.11017,2.48226,2.48226,0,0,0,2.71959-2.12025ZM314.802,215.294l.15131.52342.20369.112.93859-.27262a2.01773,2.01773,0,0,0,1.94312.72935c1.16243-.30968,1.72837-1.97175,1.2644-3.71219s-1.78162-2.90021-2.94386-2.58946c-1.16243.30969-1.72837,1.97176-1.26459,3.71112a4.69705,4.69705,0,0,0,.4533,1.1141l-.63753.18566-.00321.00056A.15914.15914,0,0,0,314.802,215.294Zm1.05394,6.00909.15113.52235.20369.112,2.93735-.85354.01422-.0069a.15565.15565,0,0,0,.10038-.20056l-.15057-.51915-.00131-.00748a.16227.16227,0,0,0-.20131-.10466l-2.94515.85931-.00321.00057A.15853.15853,0,0,0,315.856,221.30305Zm-3.53051-15.81234a.91058.91058,0,0,0,.15356.3037c.02524.03084.04993.05847.07461.0861a.71971.71971,0,0,0,.06245.06069.57554.57554,0,0,0,.06541.05245.90819.90819,0,0,0,.5545.1893c.02748-.00042.05585-.00208.08333-.0025a.71071.71071,0,0,0,.20176-.031l3.44825-1.00706a.94332.94332,0,0,0,.62479-.57248l.05236-.51836a.56972.56972,0,0,0-.01282-.06058c-.00477-.01459-.0101-.03239-.01379-.04718a.77913.77913,0,0,0-.0316-.08592.932.932,0,0,0-.3106-.40732c-.02658-.01959-.05348-.03471-.08094-.053a.93548.93548,0,0,0-.7667-.10468l-3.45253,1.00782A.9605.9605,0,0,0,312.32546,205.49071Zm-.62484,2.77783.00038.00214a.97667.97667,0,0,0,1.19622.68732l3.53951-.958a.97863.97863,0,0,0,.70749-1.1127.83393.83393,0,0,0-.01985-.088.97889.97889,0,0,0-1.20176-.68745l-3.53825.95893A.97528.97528,0,0,0,311.70062,208.26854Zm-9.98984,8.48831.33447.19152.00126.00089c.047.048.09095.09756.13511.14823-.02424-.03763-.04954-.07507-.074-.11378l1.61673.92327c-.25334-1.33763-.67444-2.63261-1.37062-3.07038a1.13016,1.13016,0,0,1-.38717-.913c-.206-2.78971,3.15338-10.48652,7.08677-10.81381,4.32877-.36025,17.76017.02828,21.15031-1.329.05142-.22834.10142-.41456.13987-.55355a14.65371,14.65371,0,0,0-6.96175-8.71352,2.68522,2.68522,0,0,1,.594,1.26907c.03254,1.16584-1.32105,1.59833-2.20567,1.921a17.672,17.672,0,0,0-8.33957,1.1574l-.00213.00038q-.75115.28879-1.477.63377l-.003.00164c-4.84948,2.30536-8.74152,6.39355-10.14181,10.45581-.49926,1.63384-.30605,3.83506-.17159,5.99038.05188.83623.095,1.66628.08433,2.454-.00064.07176-.00253.14263-.00425.21456l.00019.00107C301.7139,216.66153,301.71234,216.70919,301.71078,216.75685Z"></path><path class="cls-18" d="M325.35309,216.50289l.00406.01692a.621.621,0,0,0,.02162.08549.58034.58034,0,0,0,.043.10707.68362.68362,0,0,0,.27294.28056.70173.70173,0,0,0,.67888.01869l.71047-.4861a1.02076,1.02076,0,0,0,.33158-1.07542.98547.98547,0,0,0-.03837-.10568l-.00075-.00429-.0106-.029a.9873.9873,0,0,0-.13409-.21785l-.10273-.13958a.9379.9379,0,0,1-.239.85529,1.13236,1.13236,0,0,1-.101.09044l-.71048.48612a.57015.57015,0,0,1-.28212.08805.53885.53885,0,0,1-.111-.00477c-.01824-.00341-.03986-.00733-.05828-.01182l-.00466-.00139a.2231.2231,0,0,1-.02521-.00549.63389.63389,0,0,1-.0897-.03387l-.00591-.00227a.23654.23654,0,0,1-.05473-.03558.02788.02788,0,0,1-.01867-.01216l-.00465-.00139-.00037-.00214a.09691.09691,0,0,1-.03413-.02487.43868.43868,0,0,1-.05629-.05075l.011.094A.55588.55588,0,0,0,325.35309,216.50289Z"></path></g><path class="cls-8" d="M296.54268,222.16657c1.65472,2.18294,4.08256,3.20642,5.77767,2.55312-.05732-.088-.11358-.17626-.16788-.26592l.00749-.00131a1.16483,1.16483,0,0,0,.19257-.08338l.00132.00749.01422-.00691.07143.30048.08183.34714c.06273.0937.12846.18577.19616.2764l-.05991-.43585.102.4935c3.71206,4.99621,11.28338,7.48933,18.71617,4.20957a4.44624,4.44624,0,0,1,1.43249-.70532c4.556-1.30166,9.22171-3.56156,10.50328-7.27015.0572-.15771.10975-.31682.15532-.478a14.66584,14.66584,0,0,0,.41231-6.943l-.01126-.06415a4.25366,4.25366,0,0,0-1.15428-2.18254,10.37582,10.37582,0,0,1-1.66715-2.26012,10.55089,10.55089,0,0,1-1.24951-4.76135l-.00548-.28889a12.598,12.598,0,0,1,.3121-2.82658c-3.39014,1.35727-16.82153.96874-21.15032,1.329-3.93338.32728-7.2928,8.0241-7.08676,10.8138a1.13011,1.13011,0,0,0,.38717.913c.69617.43777,1.11728,1.73276,1.37063,3.07038l-1.61674-.92326c.02442.0387.04972.07614.074.11377-.04416-.05067-.08812-.10026-.13511-.14823l-.00126-.00088-.33447-.19152c.00156-.04767.00312-.09533.00449-.14407l-.00019-.00107c-1.8112-1.73669-4.12092-2.30035-5.54808-1.219C294.49835,216.65632,294.66666,219.68961,296.54268,222.16657Zm6.20884,2.34084.013-.00779.09717.40948c-.00559-.00673-.01383-.0097-.01942-.01643Z"></path><path class="cls-15" d="M322.4306,209.39485l-.29636.24643q.127-.20028.26705-.38755C322.41106,209.3015,322.42082,209.34818,322.4306,209.39485Z"></path><path class="cls-15" d="M323.32509,217.05235c-.038.0977-.07816.19431-.11941.29093-.04233-.00869-.08467-.01737-.12592-.02823l.01845-.3083.0152.00435v-.0076a1.165,1.165,0,0,0,.20408.04885Z"></path><path class="cls-14" d="M301.01754,215.38066q.38041.53833.70179,1.0165.2055.30451.38833.58655l1.61673.92327c-.25334-1.33763-.67444-2.63261-1.37062-3.07038a1.13016,1.13016,0,0,1-.38717-.913c-.206-2.78971,3.15338-10.48652,7.08677-10.81381,4.32877-.36025,17.76017.02828,21.15031-1.329a2.32614,2.32614,0,0,0,.46113-.23629l-.01264.00333c2.56016-1.031,3.99812-16.0384-6.2792-12.87141-7.94971,2.45014-8.25222,6.44991-10.94241,8.18478l-.00213.00038a4.83154,4.83154,0,0,1-1.477.63377l-.003.00164a8.09762,8.09762,0,0,1-2.10433.21147C302.99367,197.604,297.54717,210.4743,301.01754,215.38066Z"></path><path class="cls-18" d="M325.35309,216.50289l.00406.01692a.621.621,0,0,0,.02162.08549.58034.58034,0,0,0,.043.10707.68362.68362,0,0,0,.27294.28056.70173.70173,0,0,0,.67888.01869l.71047-.4861a1.02076,1.02076,0,0,0,.33158-1.07542.98547.98547,0,0,0-.03837-.10568l-.00075-.00429-.0106-.029a.9873.9873,0,0,0-.13409-.21785l-.10273-.13958a.9379.9379,0,0,1-.239.85529,1.13236,1.13236,0,0,1-.101.09044l-.71048.48612a.57015.57015,0,0,1-.28212.08805.53885.53885,0,0,1-.111-.00477c-.01824-.00341-.03986-.00733-.05828-.01182l-.00466-.00139a.2231.2231,0,0,1-.02521-.00549.63389.63389,0,0,1-.0897-.03387l-.00591-.00227a.23654.23654,0,0,1-.05473-.03558.02788.02788,0,0,1-.01867-.01216l-.00465-.00139-.00037-.00214a.09691.09691,0,0,1-.03413-.02487.43868.43868,0,0,1-.05629-.05075l.011.094A.55588.55588,0,0,0,325.35309,216.50289Z"></path><polyline class="cls-8" points="334.662 270.466 338.705 293.603 347.087 291.854 341.119 266.029"></polyline><path class="cls-8" d="M346.33638,301.93645a.98427.98427,0,0,0,1.93729-.28268L347.242,294.518a27.41756,27.41756,0,0,0-.50273-4.48069c-.52278-4.02747-2.76691-4.57623-5.31028-3.0716-2.0307,1.20125-2.50228,2.1104-3.75734,4.68422a6.24694,6.24694,0,0,0-.68172,2.76694l-2.46441,3.00752a1.07911,1.07911,0,0,0,.11112,1.52122,1.09127,1.09127,0,0,0,1.51881-.20042l1.44229-1.76016a3.67765,3.67765,0,0,0,.24757.34109l1.06724,7.382a.98427.98427,0,0,0,1.9381-.28418l-.839-5.79679a3.68774,3.68774,0,0,0,.38047.05558c.12723.02216.25491.04066.38262.05891l1.03124,7.133a.98427.98427,0,0,0,1.93729-.28268l-.97208-6.72382c.21593-.00334.4318-.01129.64745-.02564l.80762,5.58634a.98427.98427,0,0,0,1.9373-.28268l-.81812-5.65885a2.739,2.739,0,0,0,.453-.27131Z"></path><path class="cls-10" d="M346.24051,272.26131l-12.6303,1.63835-7.78613-32.28432a1.23155,1.23155,0,0,1,1.54116-1.47129l6.59256,1.9174a2.04417,2.04417,0,0,1,1.36543,1.30964C342.3969,264.34789,345.16326,270.64974,346.24051,272.26131Z"></path><path class="cls-13" d="M325.01822,205.68332a.89111.89111,0,0,0,.9511.79038l2.77819-.61816a.76333.76333,0,0,0,.54069-.67159l-.00028-.00215a1.07111,1.07111,0,0,0,.00731-.28333l.00066-.00337a1.12873,1.12873,0,0,0-.02468-.15771.8924.8924,0,0,0-.95-.79052l-2.77819.61816A.89275.89275,0,0,0,325.01822,205.68332Z"></path><path class="cls-13" d="M311.96213,209.5704l.00056.0021a.97667.97667,0,0,0,1.25137.58089l3.443-1.26166a.97863.97863,0,0,0,.60823-1.16991.83356.83356,0,0,0-.02741-.08594.97888.97888,0,0,0-1.25689-.58054l-3.44166,1.26244A.97527.97527,0,0,0,311.96213,209.5704Z"></path><ellipse class="cls-13" cx="317.37794" cy="213.20368" rx="2.17767" ry="3.26118" transform="translate(-44.21018 88.95154) rotate(-14.92766)"></ellipse><ellipse class="cls-13" cx="328.09672" cy="210.33309" rx="2.04418" ry="2.8347" transform="translate(-43.10898 91.61581) rotate(-14.92766)"></ellipse><path class="cls-19" d="M322.74109,220.96558c-1.09272-.82623-3.57873.11134-3.57873.11134"></path><path class="cls-7" d="M162.56609,277.51853l-3.14673-2.613c-.0047-.00415-.01086-.00494-.01568-.009l-.62226-1.85089.47528-.1145-4.20855-11.5752-6.55561-18.55755a8.79134,8.79134,0,0,0-1.77929-5.12659,13.6086,13.6086,0,0,1-.41413-2.43237,2.8568,2.8568,0,0,0-.79376-1.84235,15.4419,15.4419,0,0,0-3.60028-2.09143c-.032-.01459-.06409-.03058-.09613-.0437-.24182-.11365-.48938-.21558-.737-.31171-.332-.12671-.67285-.24322-1.018-.34515h-.00147c-.06848-.02039-.1369-.04077-.20538-.05829-.45874-.12958-.92774-.2359-1.404-.3233l-.949-2.81464a33.39823,33.39823,0,0,0,9.71222-1.58215,6.58306,6.58306,0,0,0,3.56677-2.53632c.06378-.10913.12439-.2215.18054-.33514a11.12541,11.12541,0,0,0,1.247-5.12458l.00037-.0495a3.22725,3.22725,0,0,0-.56622-1.78381,7.85954,7.85954,0,0,1-.938-1.91217,5.19018,5.19018,0,0,1-.235-1.98035.64846.64846,0,0,0,.24542-.60272.56085.56085,0,0,0-.11657-.34094c.14142-.7168.3562-1.36884.50921-1.91406a7.46757,7.46757,0,0,0-.50689-5.33252,10.945,10.945,0,0,0-1.18726-1.89069s3.01563-3.51477-9.88025-3.14532c-11.13342.319-16.18426,9.81475-13.61151,12.28814a21.98469,21.98469,0,0,1,.35114,2.4939,2.356,2.356,0,0,0-1.99244-.02582,2.56071,2.56071,0,0,0-1.253,2.16046,4.34677,4.34677,0,0,0-.01721.44782c.00055.05176-.0072.09973-.00494.15216a5.716,5.716,0,0,0,.65069,2.49,5.55059,5.55059,0,0,0,1.92463,2.1654,15.567,15.567,0,0,1-3.68409,6.39246c-5.22216,5.46295,2.52216,4.15106,6.53821-.03528l-.1308,3.55408-.0058.00146a21.0953,21.0953,0,0,0-3.20269,1.25257,10.85982,10.85982,0,0,0-3.65711,2.70746,3.10209,3.10209,0,0,0-.26361.402v.00147a12.38188,12.38188,0,0,0-.91479,4.76227c-9.561,24.60705-11.44672,36.6651-11.44672,36.6651l.91266.03161-.01074.04932-.20343.70209.04919.01312a12.08445,12.08445,0,0,0-.249,1.5376.71381.71381,0,0,0-.14972.25494l-1.15357,5.73334a.7276.7276,0,0,0,1.41846.28735l.65064-3.23364c.0335.04364.06213.09064.09777.13275.03986.03412.08967.05237.13184.08313l-.81848,4.06775a.72756.72756,0,0,0,1.4184.28735l.78387-3.89575c.12884.01917.25757.0387.387.05249l-.76446,3.79932a.72762.72762,0,0,0,1.41845.28735l.814-4.04547q.26047-.0131.52026-.04077l-.65936,3.27472a.72757.72757,0,0,0,1.41895.28845l.24768-1.231a8.0771,8.0771,0,0,0,.34668,3.61249.79092.79092,0,0,0,.33575.38013,1.11184,1.11184,0,0,0,1.1272-.02613,11.5,11.5,0,0,0,.44018,2.1521,9.45413,9.45413,0,0,0-.01123,1.52857l3.26221,40.03393c-.90851,3.07215-1.59412,4.00537-.99005,4.00537H129.5a1.96213,1.96213,0,0,0,1.54108-.71753c.44909-.56347.57556-1.35363-1.27954-1.97375-1.29889-.43421-2.87128-1.26782-4.35212-1.91028l7.21149-39.05749c.26111-.015.52057-.024.77741-.024.01416,0,.02734-.0022.0415-.00232l6.54938,39.61572c-.9231,3.15271-1.62934,4.09876-1.0188,4.09876H148.894a1.96158,1.96158,0,0,0,1.541-.71753c.44916-.56336.57556-1.35352-1.27954-1.97364-1.30439-.436-2.8844-1.27478-4.37067-1.91821l3.5899-44.28808c.00782-.01026.01886-.01856.02649-.02881.655-.88965.70484-2.08667.80018-4.37677.02429-.58435.00134-.712-.11609-4.42994-.05939-1.88085-.0503-1.7716-.07428-2.38336-.06549-1.66986-.15564-3.24731-.26215-4.7561-.28082-3.957-.67224-7.44244-1.02551-10.89325l.83288,1.81091.43793,1.256,2.8299,10.51471.77179-.18591.02685.077c-.002.17456-.01672.33209-.0047.52533.095,1.53088-.0274,3.04388.62579,4.32995l.159,3.32788a.7302.7302,0,0,0,1.45087-.06744l-.07965-1.66675a2.01632,2.01632,0,0,0,.24469.06928l.14587,3.05383a.73019.73019,0,0,0,1.45087-.06738l-.14643-3.065q.3664-.05364.72736-.13574l.19031,3.98181a.73019.73019,0,0,0,1.45086-.06744l-.20861-4.36707a2.75331,2.75331,0,0,0,.50518-.22619l.18988,3.98578a.73019.73019,0,0,0,1.45166-.06641l-.28009-5.86249a.71665.71665,0,0,0-.084-.23016q.006-.1561.001-.31122l1.15271.95721a.80961.80961,0,0,0,1.13452-.06829A.80068.80068,0,0,0,162.56609,277.51853Zm-46.18646.058c-.085-.20117-.16748-.39367-.24408-.56866l.35571.01233Z"></path><path class="cls-7" d="M518.84649,224.21624a.81985.81985,0,0,0-1.10561.21677c-.59716.83179-.86522,2.65767-1.21112,4.232-.35641,1.62234-.74472,3.79922-1.15568,6.10406-.47186,2.64543-.79464,6.99062-1.30044,9.29571-.28531,1.30044-.2479,1.02411.40576,2.18414.2282.40489.47309.83337.71726,1.25031a1.41077,1.41077,0,0,0,2.55146-.24351c1.79277-5.22736,2.17714-19.11846,2.08333-22.52984C519.76827,222.437,519.02722,224.27172,518.84649,224.21624Z"></path><path class="cls-7" d="M514.5356,222.03119a.55969.55969,0,0,1,.74369.0762l1.551,1.891a.47.47,0,0,1-.11882.68556.55944.55944,0,0,1-.74379-.07615l-1.5512-1.89091A.47022.47022,0,0,1,514.5356,222.03119Z"></path><path class="cls-7" d="M520.77175,222.50678a1.8002,1.8002,0,0,0-.486-.98246,1.30512,1.30512,0,0,0-.70282-.23912,6.95883,6.95883,0,0,0-1.971.05808,2.08193,2.08193,0,0,0-1.65587,1.10526,2.53794,2.53794,0,0,0,.01454,2.08165c.5131,1.1491.70818,1.5542,1.66287,2.07924,1.19534.65749,2.32893.39316,2.75639-1.42313A6.12759,6.12759,0,0,0,520.77175,222.50678Z"></path><path class="cls-7" d="M516.83845,222.58426l.88854-3.533a.39806.39806,0,0,0-.36406-.49146.54262.54262,0,0,0-.583.37907l-.88865,3.53285a.39836.39836,0,0,0,.36406.49162A.543.543,0,0,0,516.83845,222.58426Z"></path><path class="cls-7" d="M518.20916,222.38464l.8885-3.53326a.398.398,0,0,0-.364-.49141.54278.54278,0,0,0-.58293.379l-.88859,3.53311a.398.398,0,0,0,.364.49146A.54274.54274,0,0,0,518.20916,222.38464Z"></path><path class="cls-7" d="M519.37276,223.00436l.8885-3.5331a.39786.39786,0,0,0-.364-.49136.54258.54258,0,0,0-.583.379l-.88849,3.53295a.398.398,0,0,0,.36406.49146A.54277.54277,0,0,0,519.37276,223.00436Z"></path><path class="cls-7" d="M520.39217,224.06l.8885-3.53336a.39805.39805,0,0,0-.36412-.49141.54271.54271,0,0,0-.58277.37923l-.88859,3.533a.39808.39808,0,0,0,.364.49151A.5432.5432,0,0,0,520.39217,224.06Z"></path><path class="cls-7" d="M523.071,337.52456a.7371.7371,0,0,1-.7363-.7072l-4.64571-113.895a.73735.73735,0,0,1,1.47346-.06048l4.64566,113.895a.73738.73738,0,0,1-.70684.76691Z"></path><path class="cls-7" d="M498.9581,291.89712c-1.34708,8.51277-3.20543,26.97083-5.15376,34.04694-.40189,1.45983-1.6744,6.88977-2.10558,8.53426l3.77166-.14092c.1695-.58466,8.62307-23.91086,13.42455-44.60578C506.07417,290.53355,501.74077,292.45008,498.9581,291.89712Z"></path><path class="cls-7" d="M501.56106,333.81272l-1.10342-.3752c-4.3455,1.96875-7.13307.71777-8.60556-.49222l-.85925,2.9045c-.07829.26434.2404.51152.6651.51611l8.85447.09478C502.83883,336.48565,503.62015,334.51267,501.56106,333.81272Z"></path><path class="cls-7" d="M500.45764,333.43752l-7.13425-2.42585c-.40581-.13791-.90258.01123-.98705.29669l-.48426,1.63694C493.32457,334.15529,496.11214,335.40627,500.45764,333.43752Z"></path><path class="cls-7" d="M484.32223,286.56768c-3.01659,8.07368-10.13236,31.47328-13.45171,38.01914-.68474,1.35046-2.44948,5.06378-3.19976,6.58945l3.15975,1.96757c.28265-.53908,13.21514-21.7128,22.04435-41.03583C489.95086,292.33172,486.93892,287.66416,484.32223,286.56768Z"></path><path class="cls-7" d="M476.86786,333.62989l-1.10347-.37519c-4.34545,1.96869-7.13312.71772-8.60566-.49222l-.8592,2.9045c-.07829.26438.24045.51157.66515.51616l8.85453.09478C478.14559,336.30288,478.92685,334.32985,476.86786,333.62989Z"></path><path class="cls-7" d="M475.76439,333.2547l-7.13419-2.4258c-.40582-.138-.90274.01123-.98716.29669l-.48431,1.63689C468.63127,333.97242,471.41894,335.22339,475.76439,333.2547Z"></path><path class="cls-7" d="M478.76372,284.7984c-.62809.6409-1.33932,1.44314-1.1147,2.31188a2.23233,2.23233,0,0,0,.46686.815,14.913,14.913,0,0,0,9.29485,5.3522c3.52529.44093,6.77707.10616,10.31615.41822a43.70848,43.70848,0,0,0,6.14821-.4123,21.12218,21.12218,0,0,0,9.88338-2.65461,71.81519,71.81519,0,0,0,.00975-19.28006c-5.95722.95444-11.83835,3.162-17.50444,1.08959-1.55512-.56878-4.91133-8.47076-6.5501-8.70779-4.18447-.60548-3.45006,7.53527-4.95787,10.68517C483.15332,277.76342,481.36189,282.14741,478.76372,284.7984Z"></path><path class="cls-7" d="M465.98656,207.28023a12.50073,12.50073,0,0,1-.472,3.52157c-.3928.93274-1.16421,1.64985-1.62984,2.547a2.22156,2.22156,0,0,0,.33645,2.79619c.40281.28628.92591.3535,1.32779.63866,1.132.80454.59732,2.49833.58134,3.86a4.47525,4.47525,0,0,0,2.21614,3.828c.96868.55516,2.251.85093,2.67406,1.87744.332.80923-.02083,1.82726.52228,2.51992.7976,1.01665,2.49027.23728,3.64417.81658.81224.40872,1.14155,1.36816,1.64893,2.12094a4.53124,4.53124,0,0,0,4.393,1.90485,8.21145,8.21145,0,0,1,2.61261-.44384c1.14711.17761,2.07383,1.26389,3.2285,1.26251,2.39926-.00674,2.22037-2.82473,3.37631-4.64408,1.45319-2.29065,5.24226-3.005,5.44086-5.74061.04741-.64091-.123-1.35347.22677-1.88479.35538-.53984,1.11812-.67234,1.53052-1.16977.77278-.93285-.06-2.45857.08227-3.61824a7.78159,7.78159,0,0,1,.30721-.78356c2.4305-6.76671,1.24153-13.79152-3.539-17.23541-3.96025-2.854-9.43832-2.56274-14.38552.197-.05905-.031-.09871-.07278-.159-.10239a5.71052,5.71052,0,0,0-4.412-.1256c-2.70989.86838-2.90925,3.598-5.0599,4.64658-.82327.39994-1.85682.0666-2.72628.35845A3.17866,3.17866,0,0,0,465.98656,207.28023Z"></path><path class="cls-7" d="M480.9649,203.13766c.371-.39816.74477-.79714,1.14691-1.16018a13.75144,13.75144,0,0,1,7.52761-3.61992,9.43965,9.43965,0,0,1,7.79005,2.4379,3.13877,3.13877,0,0,1,2.28274,1.031,5.36262,5.36262,0,0,1,1.55216,2.25732c.56914,1.40639.66576,5.06694.6287,6.58317-.05124,2.09553-.61,4.05269-.516,5.27544-1.80333-1.42171-3.86461-7.02359-4.61775-9.2161a4.212,4.212,0,0,1-.49825.61845c-1.67863,1.71865-4.37489,1.61229-6.70633,2.11344a11.82668,11.82668,0,0,0-4.10786,1.74918c-1.61892,1.08994-1.726,2.3423-1.49729,4.32023l4.3334,8.3424-5.69661-3.261a10.773,10.773,0,0,0-1.12374-2.18087,30.19445,30.19445,0,0,1-2.57938-6.23518,10.84806,10.84806,0,0,1,.69-6.84746q.03032-.07486.06232-.14913A12.8214,12.8214,0,0,1,480.9649,203.13766Z"></path><path class="cls-7" d="M501.16055,205.66447c1.528,4.8609-2.19786,10.63443-7.56813,11.36705-5.37016.73257-10.282-2.76629-10.97072-7.815s-3.08616-6.88532,1.67215-9.48037C492.56046,195.22792,499.45783,200.24755,501.16055,205.66447Z"></path><path class="cls-7" d="M486.46726,267.22628c-.0151.12239-.03108.25417-.04736.39407a5.325,5.325,0,0,0,1.33652,4.27415c5.51124,5.89383,17.91985,5.4406,24.85494.411a2.48208,2.48208,0,0,0,1.02885-2.15075,45.16945,45.16945,0,0,0-.7906-5.91726,67.47478,67.47478,0,0,0-1.89239-6.78677c-.28689-.7415-.57133-1.48351-.84337-2.2293a34.91344,34.91344,0,0,1-1.82079-7.14828,12.69472,12.69472,0,0,1-.34956-2.3913c-.19074-2.85964-.29522-6.66969-1.40665-8.88179a12.37126,12.37126,0,0,0-.87339-1.73983,20.38689,20.38689,0,0,0-4.9004-4.48453c-6.23957-4.07943-10.18829-2.74312-13.55149-.7585-5.83651,2.94947-3.82183,7.138-3.82183,7.138,1.42987,3.82148,4.13664,10.79061,5.07266,14.66752C490.03048,258.12043,487.14808,261.73224,486.46726,267.22628Z"></path><path class="cls-7" d="M488.70785,230.9999a6.108,6.108,0,0,0,2.15371,2.42044,8.47246,8.47246,0,0,0,3.02276,1.54573,3.60958,3.60958,0,0,0,2.0699-.0613,2.19593,2.19593,0,0,0,1.39246-1.46136,2.51228,2.51228,0,0,0-.04445-1.215,6.1192,6.1192,0,0,0-1.77112-3.07411,6.38192,6.38192,0,0,0-2.56795-1.08556,5.35966,5.35966,0,0,0-3.59966.29756A2.19108,2.19108,0,0,0,488.70785,230.9999Z"></path><path class="cls-7" d="M487.43094,209.29286c-1.49627,2.21762-3.519-.51457-2.859,2.56948l.91341,4.26874c1.145,5.349,5.371,8.05107,9.82116,7.02584,4.44983-1.02482,7.50546-5.40442,6.3609-10.753l-1.08781-5.04958c-.54847-2.545-2.242-4.18361-4.42757-4.19494a4.35992,4.35992,0,0,0-2.80385,1.10679Z"></path><path class="cls-7" d="M482.59056,200.80919a10.10807,10.10807,0,0,0-2.87934,5.06281,11.26215,11.26215,0,0,0,2.09737,8.97574s3.50972,3.94724,5.02779,5.89246c.21314.273,2.11339,1.56058,1.94358,1.24924-5.229-9.58934,2.3762-8.56973-1.602-14.48525Z"></path><path class="cls-7" d="M486.43031,211.89282c1.37715-.31849,2.80442.87226,3.18782,2.65869.38362,1.78628-.42214,3.49238-1.79944,3.81051-1.3773.31807-2.80467-.872-3.18818-2.65839C484.24715,213.91678,485.05276,212.211,486.43031,211.89282Z"></path><path class="cls-7" d="M491.587,215.46323l-3.97612.92876c-.54674.1275-.84175.92923-.65545,1.78118l2.51068,11.48612c.51774,2.36926,2.12891,3.29465,3.78687,2.93768,1.64878-.35493,2.7227-1.8366,2.20776-4.19238l-2.54115-11.62444C492.73353,215.92851,492.134,215.33573,491.587,215.46323Z"></path><path class="cls-7" d="M500.6004,206.84843l-1.95512.40837a.53132.53132,0,0,0,.21712,1.04023l1.95537-.40836a.53136.53136,0,0,0-.21737-1.04024Z"></path><path class="cls-7" d="M492.45113,208.5605l-1.95512.40826a.53136.53136,0,0,0,.21738,1.04024l1.95507-.40837a.5313.5313,0,0,0-.21733-1.04013Z"></path><path class="cls-7" d="M498.05531,213.45784l-.08835-.12638a.84125.84125,0,0,1-.44368.81419l-.76406.39627a.63907.63907,0,0,1-.73691-.114v.08243a.66013.66013,0,0,0,.96342.58981l.76411-.39621A.853.853,0,0,0,498.05531,213.45784Z"></path><path class="cls-7" d="M495.22247,217.37512c.20436.42092.671.865,1.88417.68377,1.17019-.36871,1.395-.97245,1.3944-1.44033Z"></path><path class="cls-7" d="M500.85493,209.27357l-.825.26479c-.02113.0193-.0612.00439-.10116.01276-.29782.06217-.46119.48452-.36549.94321.0958.4587.41495.78009.71256.718.29781-.06227.46124-.48437.36539-.94321a1.18182,1.18182,0,0,0-.15087-.37208Z"></path><path class="cls-7" d="M492.36166,211.20827c.04619.00143.87956-.236.87956-.236l-.34084.54117a1.16226,1.16226,0,0,1,.18007.40663c.09973.45788-.06033.88145-.35748.94637-.2971.06457-.61891-.25392-.71864-.71189C491.9046,211.69677,492.06456,211.27325,492.36166,211.20827Z"></path><path class="cls-7" d="M517.7958,244.34656l-7.30891-5.62225-2.614,5.43774,7.67312,3.888c1.29737.65182,1.664-.404,2.0966-1.64434l.24106-.69113C518.26505,244.6208,518.88763,245.035,517.7958,244.34656Z"></path><path class="cls-7" d="M498.41417,241.04263l9.95525,5.15442a1.65683,1.65683,0,0,0,2.35277-.54342l2.78879-4.78832a1.65455,1.65455,0,0,0-.51223-2.21215c-2.67406-1.77571-15.32006-9.73185-15.32006-9.73185Z"></path><path class="cls-7" d="M506.88468,243.04138l-8.39977-3.80453-1.30309,5.891,8.35823,2.033c1.41195.33824,1.52786-.7735,1.66567-2.07981l.07681-.72787C507.40411,243.20124,508.10473,243.4623,506.88468,243.04138Z"></path><path class="cls-7" d="M513.9761,224.49645a.81983.81983,0,0,0-1.125-.06033c-.78264.6605-1.48923,2.36517-2.20995,3.80714-.74253,1.48575-1.65154,3.50151-2.614,5.63577-1.1048,2.44954-2.48093,6.58363-3.5353,8.69488-.59487,1.19116-.4909.93244-.141,2.2171.12208.44839.25479.92377.38948,1.38787a1.4108,1.4108,0,0,0,2.5335.38815c3.0173-4.62989,6.78886-18.00468,7.53255-21.33526C515.30517,222.99686,514.1377,224.5945,513.9761,224.49645Z"></path><path class="cls-7" d="M487.26067,244.251,498.13,246.99571a1.657,1.657,0,0,0,2.16648-1.06631l1.62157-5.29871a1.65442,1.65442,0,0,0-1.00384-2.03663c-3.009-1.11823-17.13773-5.97611-17.13773-5.97611Z"></path><path class="cls-7" d="M520.181,225.49794l-10.2795-4.16946a1.48267,1.48267,0,1,1,1.11455-2.74791l10.2796,4.16946a1.48269,1.48269,0,1,1-1.11465,2.74791Z"></path><path class="cls-7" d="M511.62921,220.42922A3.13019,3.13019,0,1,1,509.905,216.352,3.1303,3.1303,0,0,1,511.62921,220.42922Z"></path><path class="cls-7" d="M510.33076,221.32307a.55979.55979,0,0,1,.70256.25586l1.04116,2.21312a.46976.46976,0,0,1-.283.6355.55927.55927,0,0,1-.7025-.25571l-1.04136-2.21307A.47024.47024,0,0,1,510.33076,221.32307Z"></path><path class="cls-7" d="M516.26114,223.31a1.79927,1.79927,0,0,0-.231-1.07148,1.30418,1.30418,0,0,0-.62284-.40382,6.95586,6.95586,0,0,0-1.92531-.42592,2.08173,2.08173,0,0,0-1.87606.66652,2.538,2.538,0,0,0-.49518,2.02193,3.34364,3.34364,0,0,0,1.10373,2.42289c.998.92994,2.16183.951,3.02067-.70552A6.12624,6.12624,0,0,0,516.26114,223.31Z"></path><path class="cls-7" d="M512.42838,222.42282l1.72606-3.20824a.3981.3981,0,0,0-.23285-.56552.54257.54257,0,0,0-.658.22483l-1.7261,3.20809a.39841.39841,0,0,0,.23274.56572A.543.543,0,0,0,512.42838,222.42282Z"></path><path class="cls-7" d="M513.80635,222.5646l1.7259-3.20834a.39809.39809,0,0,0-.23269-.56567.54294.54294,0,0,0-.658.225l-1.726,3.20834a.39784.39784,0,0,0,.23269.56546A.54276.54276,0,0,0,513.80635,222.5646Z"></path><path class="cls-7" d="M514.78289,223.45019l1.72589-3.20824a.3977.3977,0,0,0-.23263-.56541.5425.5425,0,0,0-.658.22472l-1.726,3.20824a.398.398,0,0,0,.23279.56552A.54276.54276,0,0,0,514.78289,223.45019Z"></path><path class="cls-7" d="M515.513,224.72322l1.72606-3.20855a.398.398,0,0,0-.23274-.56552.54278.54278,0,0,0-.658.225l-1.7259,3.20829a.398.398,0,0,0,.23269.56556A.543.543,0,0,0,515.513,224.72322Z"></path></g></svg> 